<?xml version="1.0" encoding="UTF-8"?>
<svg id="Camada_1" xmlns="http://www.w3.org/2000/svg" version="1.1" viewBox="0 665 1500 200">
  <!-- Generator: Adobe Illustrator 30.1.0, SVG Export Plug-In . SVG Version: 2.1.1 Build 136)  -->
  <defs>
    <style>
      .st0 {
        fill: #d50000;
      }

      .st1 {
        fill: #313131;
      }

      .st2 {
        fill: #010101;
      }

      .st3 {
        fill: #131313;
      }

      .st4 {
        fill: #303030;
      }

      .st5 {
        fill: #de0000;
      }

      .st6 {
        fill: red;
      }

      .st7 {
        fill: #2f2f2f;
      }

      .st8 {
        fill: #323232;
      }
    </style>
  </defs>
  <g>
    <path class="st1" d="M57.58,806.13c-1.11,1.48-4.06,1.54-6.05,2.45-4.53,2.02-10.66,2.73-14.14,6.46-2.14,3.34-2.02,8.13.59,10.98,2.48,1.84,6.08,2.11,8.83,3.32,3.7,1.7,6.45-1.48,10.11-1.57,4.28-.1,9.23-.12,13.55-.15,3.93-.18,4.43,1.98,6.66,2.37,9.6.2,23.57.07,32.64.06,2.35-.35,3.22-1.55,6.24-2.32,2.79-.97,4.16-1.38,5.38-3.45,1.32-2.37.56-7.1-.91-9.17-1.19-1.53-2.98-2.2-4.62-3.13-2.26-.82-4.16-2.09-6.29-3.09-2.26-1.27-5.8-1.18-7.69-3.13-.47-.52-1.1-1.4-.74-2.03.4-.48,1.85.52,3.93,1.07,2.12.59,6.52.13,9.1.47,3.22.78,6.62,2.37,9.91,3.57,4.01,2.09,5.13,6.32,6.46,10.18.82,1.64,1.28,2.57.18,4.43-1.15,2.05-1.31,5.02-2.78,6.97-1.37,1.72-4.46,1.95-6.37,2.82-1.98.66-2.3,2.39-4.33,2.4-6.79-.14-28.9.35-35.6-.18-1.31-.47-1.37-1.85-2.6-2.45-.79-.42-2.09-.35-3.95-.35-5.71,0-16.14,0-21.85,0-1.87.01-3.14-.09-3.93.36-.94.49-1.27,1.41-2.75,2.01-3.1,1.32-7.04.32-9.59-1.49-2.15-1.2-6.09-1.17-7.41-3.76-1.09-3.04-2.45-6.55-2.98-9.74-.05-1.09.44-2.26.93-3.63.95-2.17,1.18-5.06,2.79-6.93,1.37-1.34,4.13-1.62,5.98-2.37,1.75-.57,2.65-1.61,4.5-1.85,4.25-.25,11.35.02,14.93.06.63.04,1.68.22,1.88.7l.02.13Z"/>
    <path class="st4" d="M99.57,803.26c-.68-.08-1.9.33-2.33-.4s.26-1.75.14-2.45c.63-.03,1.24-.17,2.14,0,.11,1.13,0,1.98.05,2.85Z"/>
    <path class="st3" d="M57.79,808.61c.45.61-.49,1.39-1.68,1.8-2.46.49-2.8,3.07-2.66,5.24-.33,4.37,3.06,7.2,7.44,7.14,1.93.36,2.72,1.65,4.42,2.06,2.03.48,5.93,0,6.97.93,1.36,1.29-.25,1.85-2.09,1.72-4.68.24-12.5-.28-15.65.45-1.93,1.65-4.99,2.7-7.35,1.39-.93-.44-1.66-1.03-2.75-1.38-2.18-.59-5.11-.18-6.45-2.39-2.64-3.42-2.24-10.27,2.03-12.24,2.77-.53,4.49-2.76,7.67-2.86.53-.04,1.16-.15,1.67-.3,1.66-.58,2.22-1.83,4.44-2.06,1.47-.18,3.19-.14,3.8.34l.17.17Z"/>
    <path class="st3" d="M75.34,828.29c.24-.65,1.31-.54,3.24-.56,6.4-.12,18,.08,22.1-.24,1.12-.34,1.58-1.35,2.72-1.82,1.46-.69,3.28-.49,4.75-1.25,3.73-1.76,4-7.33,3.18-10.62-.32-1.09-1.26-1.14-1.26-2.01.19-1.02,1.42-1.43,2.35-1.12,2.26,1.13,4.89,2.09,6.93,3.61,2.12,2.3,2.64,6.92,1.61,9.73-1.23,1.63-2.52,3.13-5.11,3.55-1.62.24-3.33.71-4.51,1.79-1.57,1.25-4.03.41-6.25.64-8.71-.02-24.73.03-28.56-.04-.8-.03-1.43-.84-1.25-1.53l.05-.15Z"/>
    <path class="st3" d="M109.44,810.72c-1.11-.11-3.49-.18-4.61-.36-.45-.07-.65-1.69-.41-2.09,1.07-.28,3.57-.45,4.61.05.4.63.31,1.56.44,2.29l-.03.11Z"/>
    <g>
      <path d="M94.08,709.44c.95,3.59,2.83,7.84,3.05,11.78-.29,4.9.79,10.18-.86,14.89-.4,1.21-1.19,2.1-1.3,3.31-.07,6.62-.02,12.97-.06,20.53-.03,14.11-.05,27.34-.07,36.32-.12,1.38.52,1.78,1.33,3.02,2.72,5.54,7.42,10.3,13.07,12.92,3.67,2.13,2.71,7.86.85,10.95-1.23,1.81-3.48,2.13-5.38,2.8-2.8.83-3.21,2.3-6.67,2.15-7.15,0-15.19.19-22.19.05-2.73-.55-4.11-2.31-7.28-2.46-4-.28-7.03-2.09-10.75-3.05-3-.75-4.42-3.61-4.43-6.96-.08-4.28,3.68-4.74,5.31-7.95,1.38-3.08,4.05-4.95,6.89-6.59,2.07-1.62,3.35-3.95,4.69-5.54.1-.19.13-.4.13-.67-.01-9.7.05-89.35,0-97.5-.05-.33-.19-.54-.53-.71-.79-.37-2.69-.5-3.6-2.45-.91-1.96-1.32-4.8-2.79-6.1-1.46-1.57-3.5-3.76-4.49-5.1-1.03-2.2-1.2-7.12,1.28-8.12,4.82-2.25,10.15-3.11,15.25-4.38,1.32-.24,2.25.04,3.72.52,1.95.69,4.18.98,5.93,2.19,3.36,1.93,4.49,6.44,5.58,9.66.67,1.48,1.5,2.67,1.49,4.38.08,3.82.09,12.22.15,17.27,0,2.61.82,3.17,1.54,4.58l.13.28Z"/>
      <path class="st1" d="M96.59,799.25c-.87.05-1.59-1.14-1.55-2.11-.02-8.07.08-40.71.09-55.62-.17-2.39.63-2.93,1.44-5.32,1.41-4.43.57-9.73.75-14.51-.09-4.02-2.64-8.21-2.37-12.03-.03-1.57-.03-2.96-.02-4.58.01-4.68.04-13.87.06-18.56.18-3-1.09-4.18-2.07-7.08-1.57-4.05-2.54-9.5-7.02-11.48-2.66-.88-5.15-2.13-7.72-3.03-4.7-.44-13.65-.11-21.23-.27-4.24-.02-6.51.3-9.74-1.26-2.51.03-4.88,1.33-7.34,2.14-2.24.85-3.24,2.83-3.61,5.02-1.41,7.78,5.87,8.79,11.4,10.79,2.28.68,6.15.66,6.7,1.7.5,4.51-7.98,3.61-11.49,3.65-3.28-.17-5.5-1.66-8.76-2.61-5.54-.97-5.55-6.6-7.2-10.84-.41-1.7.17-3.09.79-4.94,1.06-3.52,2.4-7.63,6.62-8.34,2.6-.84,5.61-2.15,7.4-1.76,1.28.25,2.17,1.15,3.44,1.44,9.66.54,20.69-.2,30.52.17,1.85.28,3.05,1.64,5.07,1.35.91-.07,1.86-.26,2.75-.31,5.57.67,12.31,3.24,13.71,9.42.78,2.72,2.13,5.3,2.31,8.09-.05,2.19-1.34,3.61-1.88,5.58-.62,5.67-.14,15.72-.26,20.97.68,4.65,3.46,9.07,4.94,13.8.52,2.72.16,6.34-.1,9.18-.62,3.47-2.48,2.95-2.33,5.44,0,1.21,0,3,0,5.21-.29,13.47.5,39.34-.37,45.34-2.29,2.65-2.06,7.13-2.11,10.59.06,2.5.01,4.53-.72,4.75l-.12.04Z"/>
      <path class="st3" d="M93.94,709.45c-1.28.37-1.72-2.77-1.56-5.13-.05-5.12-.07-13.29-.14-16.67-.02-1.86-1.19-2.88-1.78-4.61-.64-1.69-.85-3.8-1.73-5.41-2.17-4.16-6.07-5.19-10.19-6.34-2.44-1.35-4.85.69-7.47.86-4.13.32-7.3,2.15-11.14,3.44-.87.52-1.09,1.93-1.51,2.78-.09,2.04-.18,4.45,1,6.01,1.09.74,1.29,2.53-.81,1.66-.94-.44-1.65-1.41-2.37-2.13-1.17-1.12-2.98-1.49-4.63-1.61-2.27-.04-4.19-.52-5.42-1.23-1.83-1.25-5.17-1.39-7.18-2.88-3.31-2.63-3.04-9.02-.47-11.67,1.44-1.37,3.62-1.61,5.43-2.25,1.3-.35,2.73-1.38,3.84-1.03.94.43,1.73,1.38,2.93,1.34,4.63.08,19.1.11,25.4.16,3.49-.33,4.09,1.61,7.28,2.39,6.29.95,7.84,7.86,9.36,13.11.59,2.03,2.09,3.08,1.98,5.23,0,4.28-.04,15.21-.05,20.59.05,1.98-.08,3.08-.66,3.34l-.13.05Z"/>
      <path class="st7" d="M67.67,696.16c.27.21.49.36.58.57.13,21.13-.2,89.21-.17,96.06-.16.96-1.36,1.68-1.69,2.93-.82,2.11-.9,5.08-2.61,6.47-1.79,1.58-3.32.09-3.14-2.05.12-1.56.85-2.8,1.39-3.84,1.97-3.49-.03-9.22,1.27-13.04.63-1.82,1.76-3.2,1.22-4.54-.36-1.24-1.58-1.72-1.7-2.69,0-7.47.16-68.23.19-83.64.08-1.76-.17-2.92.21-3.36.39-.42,1.37-.14,1.99,1.64.61,1.63.92,4.31,2.31,5.38l.14.11Z"/>
      <path class="st3" d="M66.29,800.12c-1-1.09-.46-3.89.23-5.06.42-1.03,1.25-1.37,1.41-2.31.08-27.69.15-67.13.24-95.59-.09-1.01,1.84-1.05,2.28-.33.28,9.37,0,90.93.05,98.8-.05.35-.3.53-.68.89-.48.42-1,1.32-1.68,2.29-.69.97-1.24,1.77-1.71,1.43l-.14-.12Z"/>
    </g>
  </g>
  <g>
    <path class="st1" d="M1356.31,809.51c1.26,1.82-.66,4.68-2.57,5.35-2.33,1.03-5.35.58-5.98,3.49-.28,2.74-1.02,6.73,1.1,8.77,3.53,1.51,8.05,3.46,11.8,1.85,5.62-1.31,11.34-2.3,15.65-6.51,1.44-1.51,3.45-3.01,4.61-4.96,2.01-3.02,2.89-6.82,4.12-10.13,1.2-2.73,2.11-7.1,1.77-10.9-.03-3.74-1.9-6.8-2.91-10.31-1.43-5.96-5.48-11.04-11.12-13.39-6.2-2.24-12.1-4.27-18.54-6.08-2.25-.41-5.38-.17-7.22-.85-5.4-2.02-11.32-3.66-16.29-6.56-2.77-1.61-3.66-5.65.82-3.94,3.79,2.54,8.27,3.98,12.64,5.39,3.88.93,8.35.5,12.05,2.36,4.55.79,9.15,1.77,13.55,3.59,4.72,1.65,9.01,3.59,12.96,6.53,4.88,4.88,8.25,11.91,9.31,18.85.44,2.56,1.43,4.54.69,7.15-1.03,6.23-2.55,10.41-5.28,15.52-2,3.03-2.64,6.65-4.95,9.43-2.72,3.15-6.87,4.15-9.98,6.91-2.3,1.44-4.33,3.09-6.9,3.96-1.7.62-4.16.49-6.04,1.03-2.55.66-2.99,1.98-6.01,2.08-4.17-.07-11.44.14-15.81-.21-1.79-.21-2.6-1.28-4.1-1.92-1.08-.49-2.96-.51-5.18-.37-4.71.73-7.26-1.26-11.22-2.43-2.72-.17-4.18,1.9-6.86,2.29-4.27.14-9.86.9-13.74-.6-2.35-1.68-5.91-2.08-8.4-3.72-3.48-3.73-4.72-8.65-5.35-13.7-.49-1.95-1.58-3.54-1.65-5.43-.04-1.29.48-2.53.93-3.72,1.43-4.88,2.44-10.91,4.63-15.73.55-1.53,1.68-2.74,3.2-3.32,3.76-.86,6.67-3.56,10.42-3.26,2.71.9,5.38,2.33,8.23,3.08,6.59,2.2,7.46,9.7,11.03,14.5,1.57,1.8,3.34,3.05,5.19,4.85,4.43,3.98,8.01,7.08,14.84,6.73,4.42.45,8.38-.79,11.79-3.36,1.87-1.07,3.56-3.18,4.65-2.4l.16.12ZM1321.53,810.05c-1.23-1.14-2.88-2.49-4.14-4.18-.97-1.63-1.38-3.33-2.28-4.69-1.74-2.26-4.47-4.26-7.05-5.59-2-1.15-3.44-2.1-6.06-2.09-1.8.03-3.19-.01-4.57.52-2.15,1.15-3.3,3.39-5.38,5.08-2.98,2.36-2.83,6.39-4.5,9.51-1.6,2.92,1.51,4.79,1.5,7.57.13,4,4.15,6.56,6.44,9.29,2.04,2.47,6.24,1.83,8.81,3.62,2.01,1.19,8.26.94,10.42.4,1.7-.56,2.59-1.48,4.65-1.82,1.98-.32,3.91-1.03,5.23-2.57.8-1.15,2.95-2.25,3.41-3.77,1.28-4.88-3.34-8.34-6.22-11.03l-.26-.24Z"/>
    <path class="st8" d="M1353.79,740.93c6.18-2.55,7.71,6.56,13.2,7.8,3.74,1.2,7.84-1.02,10.42-3.61,1.73-3.14,3-6.97,2.56-10.18-.8-5.11-3.14-10.24-8.79-11.87-1.28-.47-2.61-.95-3.76-1.25-2.14-.79-4.4.54-6.87.95-4.54.95-10.77,1.45-10.51,7.61-.08,2.02.17,4.38.74,6.22.54,1.66.57,2.7-.42,2.92-3.22.03-7.73-2.49-10.88-2.53-2.78-.17-5.6,1.25-8.3,1.89-3.77,1.16-1.12-2.57,1.16-3.05,2.05-.82,4.68-1.25,6.13-2.99,3.9-5.42.3-11.04-5.46-12.25-3.58-.46-9.29-.11-12.95-.14-3.49.29-4.94,1.71-7.93,2.58-4.8,1.73-10,3.93-13.81,7.07-1.77,1.97-2.8,4.91-4.03,7.49-1.73,3.53-3.4,8.09-4.16,12.07,1.05,6.75,3.82,14.97,9.57,18.96,3.74,2.12,6.41,5.18,10.08,7.5,2.51,1.14,5.46,2.01,7.85,3.11,2.01.97,3.86,2.13,6.17,2.52,2.51.46,6.6-.04,9.23.59,4.89,1.7,9.84,3.98,15.08,4.65,2.52.08,4.98,1.69,6.28,3.55,1.01,1.18,2.73,3.99,1.62,5.12-1.66.69-2.75-1.75-4.4-2.42-1.84-.85-3.92-1.21-5.81-1.97-7.13-2.7-13.51-5.68-20.97-6.59-1.75.02-3.35-.18-4.67-.66-3.1-1.51-6.68-1.72-9.93-2.61-4.93-2.29-11.09-4.47-13.81-8.05-3.65-3.72-7.61-6.95-8.66-12.19-1.02-4.32-3.4-7.04-3.52-11.24-.01-2.95,1.46-5.13,2.44-7.8,1.66-5.08,3.84-10.37,6.75-14.86,1.43-1.5,3.57-2.11,5.22-3.26,2.83-2.17,5.67-4.52,9.22-5.4,4.28-1.63,9.1-2.84,13.51-3.69,1.95-.69,2.6-1.74,4.95-2.14,3.04-.28,8.1-.6,10.63.6,1.1.52,1.98,1.17,3.27,1.6,2.2.64,5.4.79,7.18,1.86,1.35.7,2.91,1.26,4.63,1.21,3.68,0,10.88-.07,15.05-.1,2.27.13,3.73-.88,5.76-1.14,2.25.12,8.27,1.4,9.91,4.41.56,1.08.85,2.33,1.31,3.44.94,2.96,2.55,4.04,2.53,8.48-.19,4.22.82,8.97-1.51,12.64-1.26,2.12-1.73,6.18-4.23,8.57-1.1,1.1-2.43,1.95-3.91,2.43-5.44,1.57-11.39-.41-15.62-3.72-1.97-2.29-2.68-5.41-4.95-7.39-1.02-1.21-3.58-2.91-2.71-4.61l.15-.15Z"/>
    <path d="M1328.21,737.66c-.85,3.28-3.26,5.92-3.81,9.6.19,2.52,1.44,5.06,1.72,7.63.38,2.22,2.11,3.56,4.02,4.5,4.52,2.7,6.98,10.04,4.16,14.62-1.86,2.81-5.67,2.5-8.59,3.86-3.23,1.56-7.37,1.64-10.4-.1-1.94-.94-3.25-.9-5.65-2.01-7.03-4.67-11.96-11.03-13.85-19.4-.54-1.75-1.59-3.47-1.57-5.41.48-3.03,2.01-5.9,2.7-8.9,2.17-6.91,7.69-12.11,14.78-13.79,3.07-.34,6.93-.61,10,.41,3.32,1.52,6.51,5.15,6.52,8.64l-.03.36Z"/>
    <path class="st2" d="M1381.68,783.63c2.49.96,2.02,5.57,3.39,7.35,2.02,3.33,1.21,8.47,1.08,12.09-.16.79-.44,1.61-.77,2.33-2,4.56-2.69,9.9-5.63,13.84-2.27,2.59-6.3,1.3-9.19,2.19-2.87,2.21-5.75-.22-8.52-1.75-.51-.42-.99-.87-1.31-1.46-1.62-3.56-3.87-5.66-3.86-9.88-.3-2.07.94-3.99,1.38-5.81.23-1.35-1.56-3.23-1.38-5.75,0-.98,0-2.04-.23-2.99-1.19-5.11-6.85-7.34-8.75-11.83-1.35-3.32.58-6.96,3.79-8.22,1.99-1.02,3.99-2.72,6.2-2.26,1.54.48,3.26,1.59,5.38,1.96,4.78,1.5,9.24,3.96,13.57,6.49,1.57,1.53,2.7,2.81,4.57,3.53l.29.16Z"/>
    <path class="st3" d="M1328.25,754.52c-.45.57-.18,2.1-.43,2.62-.37.29-1.4-.02-1.88-.25-.4-.99-.48-2.5-.36-3.61.09-.58.24-1.2.8-1.23.7-.08,1.37-.1,1.89.41.31.47.03,1.46.04,1.84l-.06.22Z"/>
    <path class="st3" d="M1328.26,740.33c.27.57.25,1.87-.34,2.23-.52.31-1.29.18-1.88.2-.54-.51-.61-1.92-.02-2.23.72-.38,1.61-.15,2.25-.19Z"/>
    <path d="M1316.4,805.72c1.89.98,4.21,2.74,4.77,4.61.15,2.56.32,9.26-.34,11.67-.47.96-2.24.61-3.49,1.37-1.33.78-2.52,1.98-4.51,1.94-.58.02-1.27.09-1.84.19-1.92.41-3.03,2.6-4.13,1.57-.98-.79-1.92-1.64-3.28-1.69-2.77.12-4.69-.99-6.37-2.96-1.5-1.24-3.06-2.62-3.21-4.77-.07-.89-.1-1.87-.33-2.74-.26-1.25-2.14-2.6-1.54-3.59.39-.8,1.4-1.66,1.63-2.91.22-.99.11-2.22.36-3.22.41-2,2.08-3.25,3.48-4.62,2.52-2.63,7.32-3.01,10.59-1.98,2.11,2.26,4.67,5.85,7.86,6.99l.35.15Z"/>
    <path class="st3" d="M1381.37,783.05c-.3.27-.73.25-1.23,0-1.61-1.12-2.91-2.81-4.87-3.67-4.34-2.36-13.23-6.34-18.17-7.15-2.68.44-6.07,2.38-8.13,4.28-1.74,2.02-1.65,5.32-.4,7.52,1.39,2.82-2.67,2.61-4.44,1.95-2.57-1.21-6.43-1.78-8.69-2.93-1-.59-1.81-1.11-3.04-1.29-2.36-.32-7.03-.05-9.44-.34-1.18-.17-1.89-.51-1.96-.89,1.97-2.99,7.03-3.22,10.4-4.63,4.74-2.04,3.74-8.58,2.33-12.46-.03-1.77,2.17-1.18,3.32-.65,3.62,1.39,6.43,1.77,10.05,3.62,1.96.59,5.63.16,7.7.64,8.57,3.63,19.29,4.21,25.66,11.79.87,1,1.75,3.18,1.05,4.07l-.13.15Z"/>
    <path class="st3" d="M1315.39,804.51c-1.3,1.07-4.49-2.8-5.97-4.33-1.12-1.44-2.6-1.75-4.45-1.74-8.57.15-10.56,5.95-12.36,12.86-.03,2.17,1.66,6.3,2.5,8.49,2.43,4.39,7.62,5.29,11.99,6.77.56.09,1.05.02,1.61-.16,3.08-1.26,8.7-2.4,11.37-4.48,2.12-1.58.09-8.09,2.04-10.3,1.16-.29,1.97.88,3.19,1.88,1.98,1.73,3.43,5.2,2.83,7.44-.31,1.46-1.26,1.99-2.38,3.07-1.37,1.38-2.15,2.22-3.87,2.94-3.84.83-5.85,2.61-9.99,2.89-2.36,0-4.61.2-6.58-.41-1.56-.54-2.62-1.24-4.56-1.66-2.08-.49-4.15-.97-5.58-2.62-1.54-1.89-4.04-3.61-5.19-5.87-.89-1.59-.86-3.41-1.38-4.94-.59-1.39-1.94-3.08-1.29-5.03,1.61-4.44,2.44-8.93,6.45-11.94,1.81-2.15,3.68-3.98,6.69-3.85,3.89-.36,6.9,1.51,9.64,3.24,2.36,1.67,6.75,4.43,5.44,7.6l-.15.15Z"/>
    <path class="st3" d="M1357.2,812.85c1.76-.08,2.35,1.72,2.66,3.33.72,1.68,2.15,3.17,3.86,3.86.96.29,2.05.38,2.73.92.72.51,1.33,1.16,1.95,1.05,1.05-.11,1.28-1.54,2.35-1.68,1.24-.14,3.45-.18,4.67.18,1.86.77.38,1.98-.83,3.24-1.07,1.5-3.55.97-4.83,2.24-1.14,2.27-6.23,1.39-8.29,1.89-1.58.18-1.73,1.37-3.21,1.88-2.85.91-3.8-2.13-6.68-2.04-4.84-.46-4.4.28-4.37-5.42.12-2.65-.32-4.84.25-6.45.51-.69,1.64-.49,2.53-.47,1.84.14,3.38.21,4.11-.69.76-.87,1.46-1.87,2.74-1.85h.37Z"/>
    <path class="st3" d="M1329.23,736.39c-1.86-2.3-3.09-5.41-5.9-7.12-7.46-3.74-17.55-.62-22.72,5.65-3.31,4.93-4.99,10.65-6.44,16.3.97,4.65,2.6,9.96,4.91,14.13.63.96,2.03,4.1.9,3.61-5.16-2.48-7.61-8.94-9.03-14.42-.66-2.02-1.94-3.92-1-6.05,2.2-6.28,4.31-12.87,8.09-18.37,1.95-1.82,4.76-2.97,7.24-4.06,2.52-1.51,5.4-2.71,8.45-3.44,2.56-.72,3.16-2.18,6.3-2.15,3.36-.01,9.63-.07,12.7-.02.91.06,1.86.28,2.61.77.92.61,2.04,1.21,3.21,2.07,2.74,1.65,2.45,6.49.95,9.1-1.43,2.65-5.16,2.71-7.64,3.74-.77.24-1.71.77-2.46.39l-.19-.12Z"/>
    <path class="st3" d="M1362.68,746.43c2.5-1.88,9.73.54,11.37-2.04.64-1.05,1.16-2.65,1.87-4.19,1.72-2.99-.68-5.7-2.89-7.64-1.89-1.97-4.76-2.41-7.44-2.3-4.44-.28-8.44,1.56-8.82,6.32-.32,4.03-2.83,4.73-5.64,2.15-2.04-2.09-1.72-5.36-1.82-8.5-.04-1.86.08-3.32.7-4.06,2.53-1.79,5.46-3.16,8.77-3.5,2.34.12,4.81-1.01,6.65-1.72,1.11-.16,2.87,1.07,4.22,1.35,2.64.44,4.92,1.3,6.81,3.47,2.62,2.22,2.94,4.35,3.35,7.21.39,1.36,1.05,2.5,1.07,3.45,0,1.69-1.37,4.03-1.49,5.97-.38,2.69-1.99,4.53-4.37,5.5-1.72.95-3.77,2.16-5.79,2.21-1.2-.04-2.53-.77-3.75-1.29-1.3-.78-2.9-1.15-2.89-2.25l.09-.16Z"/>
    <path class="st2" d="M1362.09,744.81c-1.06-2.23-3.71-3.77-5-5.25-.22-1.35.05-3.54.03-4.86.02-.99.41-1.27,1.06-1.64,1.1-.59,1.63-2.04,2.79-2.3,3.07-.36,6.75-.42,9.78.07,1.33.93,4.34,4.07,5.55,5.38.62,1.24.49,3.33-.85,4.14-1.07.61-1.22,1.77-1.22,2.95,0,2.11-.32,1.7-3.08,1.78-2.34-.12-7.09.46-8.91-.07l-.14-.18Z"/>
    <g>
      <path class="st0" d="M1450.06,835.86c-1.09.52-1.99,1.17-3.17,1.5-2.72.84-4.95-1.37-7.46-2.04-1.46-.45-3.39-.16-4.74-.47-2.85-1.01-5.54-2.45-8.02-4.12-2.46-3.23-3.78-7.55-4.87-11.24-2.16-2.69-3.24-7.47-1.4-10.7,2.61-4.24,3.22-9.91,6.17-13.56,1.89-1.35,3.98-2.37,6.17-3.18,5.13-1.33,10.58-5.01,15.85-2.57,2.41,1.51,5.49,1.42,8.17,1.85,2.85.67,4.94,1.95,7.39,3.58,1.96,2.01,2.95,4.76,4.14,7.29,1.14,2.08,2.36,3.69,2.87,5.84.24,2.78.26,6.73.05,9.81-1.53,5.04-4.65,8.76-8.53,12.42-3.47,3.07-7.99,4.04-12.28,5.45l-.33.15ZM1443.59,831.04c1.35.8,1.92,1.57,3.75.59,5.51-1.59,11.67-3.87,15.34-8.6,1.71-1.92,1.35-5.02,2.59-7.21.41-.91.97-1.87,1.01-2.87-.14-2.29-1.83-3.95-2.03-6.39-.45-3.79-3.3-6.4-6.54-8.15-2.74-1.72-5.75-2.83-8.95-3.55-1.52-.49-2.98-1.71-4.62-1.69-1.79.17-3.37,1.69-5.77,2.16-.56.14-1.23.32-1.79.49-2.79.81-4.5,3.5-6.66,5.41-2.9,2.1-2.76,5.55-3.92,8.55-.38.96-.91,1.96-1.01,2.97.03,2.53,1.86,4.4,2.03,7.1.31,1.51.9,2.79,1.94,3.82,3.58,4.3,8.88,6.51,14.34,7.24l.28.13Z"/>
      <path class="st5" d="M1462.07,822.56c-1.09,3.67-5.17,4.95-8.26,6.61-3.04,1.45-7.75,1.82-10.32-.47-1.47-1.25-4.2-.68-5.68-1.47-1.94-1.16-3.78-3.3-5.26-5.15-1.09-1.57-.73-3.74-1.53-5.44-.59-1.24-1.45-2.11-1.11-2.88.48-1.02,1.71-2.58,1.66-4.12-.11-3.37,2.51-5.26,4.6-7.3,1.55-1.65,3.94-1.64,6.01-2.02,2.26-.64,4.42-2.89,6.68-1.1,1.81,1.77,6.05.86,8.17,2.63,1.77,1.96,4.59,3.46,4.99,6.59.2,1.46.44,3.05,1.21,4.29.69,1.14.73,1.97-.04,2.83-1.71,1.39-.59,4.6-1.03,6.59l-.09.41Z"/>
      <path class="st6" d="M1462.82,821.3c-1.59-1.91.04-5.26.43-6.62.12-2.07-1.04-4.01-1.47-6.09-.87-3.32-3.07-5.45-5.58-7.04-2.77-1.01-5.91-1.73-8.69-2.72-2.14-.25-3.97,1.09-6.1,1.52-3.02.62-5.38,1.93-7.3,4.36-1.27,1.31-1.81,3.15-2.24,4.94-.34,1.74-1.42,3.27-1.29,4.99.89,2.85,1.59,6.86,3.71,9.28,1.76,2.42,4.15,3.78,7.06,4.3,1.92.44,2.21,1.35.5,1.8-5.66.23-13.34-4.59-14.86-10.23-.38-2.49-1.95-4.52-1.97-6.97.23-1.81,1.26-3.43,1.64-5.3.52-4.06,3.42-6.19,6.17-8.95,1.75-1.89,4.36-2.57,6.75-3.3,1.93-.58,3.35-1.83,5.27-1.57,1.38.25,2.66,1.03,4.01,1.46,7.06,1.8,15.2,5.44,16.09,13.56.51,1.58,1.53,3,1.34,4.64-.49,2.16-1.68,4.12-2.08,6.36-.32,1.33-.76,2.12-1.24,1.72l-.14-.14Z"/>
      <path class="st6" d="M1446.96,829.98c-.14.7.12,1.86-.38,2.17-.58.34-1.76.34-1.97-.14-.31-.72-.05-1.44.07-2l2.28-.04Z"/>
    </g>
  </g>
  <g>
    <path d="M1257.9,731.14c6.41,2.74,5.36,11.64,4.47,17.12-1.7,3.82-7.35,8.3-11.43,7.69-2.48-1.32-5.4-.82-8.09-1.29-1.79-.37-3.17-1.18-4.83-1.71-2.2-.65-4-1.24-4.19-4.25-.25-1.48.07-4.3-1.35-5.01-2.93.38-4.73,5.57-8.29,6.07-6.04.13-9.35,5.9-11.56,10.62-1.69,2.61-2.97,5.85-3.72,9.2-.77,3.5-3.75,5-7.81,4.57-8.48-.88-9.13-11.08-13.97-16.15-1.41-1.56-1.72-3.8-2.34-5.76-.52-2.75-3.48-4.06-4.35-6.47-.55-2.43-.88-7.48.72-9.56,2.89-2.4,7.7-2.88,10.93-4.35,2.02-1.04,4.38-1.45,6.7-1.15,2.94.3,5.05,2.38,8.11,2.22,6.97-.65,15.21,1.54,22.05-1.24,3.06-1.27,5.33-3.25,8.82-3.58,3.29-.03,7.29-.38,10.44.33,3,1.25,6.28,2.07,9.35,2.57l.33.13Z"/>
    <path class="st4" d="M1179.42,810.79c.36,3.52-5.05,4-7.04,6.28-2.45,3.08-2.36,8.87.61,11.56,1.29.96,3.09,1.18,4.62,1.66,2.69.62,2.89,2.21,5.56,2.22,1.45,0,2.79,0,4.31,0,7.37-.05,19.03.11,22.41-.09,1.37-.24,1.89-1.31,3.24-1.79,2-.87,4.79-.83,6.46-2.43,2.28-2.28,2.55-8.01.43-10.8-.51-.73-1.21-1.39-1.73-2.08-1.79-2.25.43-3.48,2.65-2.13,1.56.85,3.34,1.56,5.15,1.98,3.77.68,5.28,3.84,4.97,7.62-.05,2.78.24,7.23-.67,8.92-.98,2.86-5.18,2.89-7.57,4.13-1.13.45-1.48,1.57-2.51,1.99-1.27.16-4.34.03-8.45.07-13.63-.05-38.26.1-42.4-.07-1.02-.4-1.32-1.25-2.5-1.86-1.28-.74-3.03-1.04-4.44-1.57-2.98-1.22-4.05-2.59-4-7.24.11-2.85-.39-6.39.72-8.91,1.09-2.6,4.47-2.91,7.1-3.94,2.19-1.03,3.61-2.24,6.43-2.3,1.7-.06,3.27-.42,4.38-.88.63-.24,1.61-.83,2.18-.46l.08.09Z"/>
    <path class="st8" d="M1236.55,753.41c.8-.42.89-.2,1.54-.1,4.31,1.13,6.33,5.6,10.39,6.36,6.37,1.55,13.52-1.51,14.66-8.21.23-2.13,1.39-3.85,2.17-5.78,1.09-3.02-1.23-5.4-1.99-8.23-1.04-3.71-3.89-6.08-6.17-9.15-1.36-1.58-3.77-2.44-5.34-3.5-1.51-.84-2.84-1.57-4.69-1.6-4.84.34-12.15-.78-16.17.79-1.82,1.16-4.9,2.69-7.23,3.56-2.57,1.28-5.13,3.05-8.17,2.69-4.1-.8-.61-4.37,1.72-4.78,2.96-.62,4.78-3.42,7.39-4.6,1.38-.69,2.48-1.26,3.83-1.83,2.08-1.07,4.9-.76,7.28-1.32,2.19-.51,3.56-1.65,5.75-1.86,2.1-.12,3.89,1.12,5.82,1.7,4.14.99,7.71,2.36,11.16,4.6,2.67,2.69,7.02,6.35,9.22,9.13,1.67,3.26,3.15,5.23,3.26,9.44.06.88.21,1.96.47,2.72.37,1.15.91,1.92.98,2.57.05,1.8-1.31,3.69-1.56,5.56-.78,3.33-2.64,6.01-4.52,8.92-3.74,3.32-9.46,3.79-13.82,5.99-3.31,1.97-5.17-1.45-8.64-1.81-4.61-.83-10.04-6.31-7.53-11.11l.19-.18Z"/>
    <path class="st4" d="M1207.18,727.24c-1.55,1.03-3.76.43-6.96.7-3.33-.06-6.05.52-8.67-.12-.7-.25-1.15-.64-1.73-1.04-1.34-1.37-6.96-1.17-9.35-.87-1.85.29-2.67,1.2-4.32,1.75-1.57.51-3.42.57-4.9,1.34-3.49,1.68-3.91,7.74-2.14,10.75.87,1.86,3.09,2.41,4.51,3.33,1.8.92.15,1.94-1.16,1.99-3.23.19-4.98-1.99-8.13-2.37-2.73-.36-5.12-1.7-5.73-4.55-.62-4.67-1.66-12.58,3.87-14.42,1.18-.44,2.77-.55,3.9-1.05,1.39-.54,2.03-1.75,3.52-1.95,3.61-.16,15.39-.07,21.03-.13,1.42.02,2.3-.13,3.31.5,2.06,2.15,6.55,2.25,9.33,3.93,1.19.7,3.36.91,3.66,2.06l-.06.13Z"/>
    <path class="st3" d="M1216.25,813.2c2.05,2.12,4.78,4.38,5.25,7.74.73,4.69-1.41,8.98-6.41,9.17-1.23.23-2.23.53-3.09,1.21-.68.56-1.04,1.11-2,1.22-.83.1-2.07.03-3.65.05-7.17-.03-20.58.06-24.26-.04-1.43-.19-1.9-1.31-3.33-1.84-1.94-.83-4.54-.68-6.17-2.19-2.56-2.49-2.61-8.52-.57-11.13,1.01-1.36,2.82-1.85,4.15-2.66,1.26-.52,2.06-1.4,3.07-1.41,2.17,2.45-.34,8.91,1.91,10.99,2.78,1.85,6.4,3.14,9.75,3.89,2.8,1.3,5.69,2.46,8.8,1.58,3.15-1.24,4.54-1.84,8.12-2.72,2.34-1.27,4.86-1.61,6.11-3.53.79-1.83.09-7.07.61-9.29.33-1.32.83-1.6,1.5-1.17l.21.13Z"/>
    <path class="st3" d="M1208.13,727.96c3.07,1.82,1.38,5.53-2.33,5-3.14-.22-3.88-2.42-7.19-2.36-1.35,0-2.87-.05-4.16.24-2.09.55-3.05,2.05-5.43,2.15-2.48.05-4.25,1.68-6.5,2.36-.71.25-1.53.48-1.91,1.21-1.23,1.75.91,8.61-2.95,8.52-1.71-.28-3.09-1.62-4.7-2.32-1.37-.62-2.94-1.2-3.77-2.61-1.65-2.49-1.6-6.84-.13-9.17,1.04-2.51,4.5-2.76,7.09-3.32,1.71-.56,2.12-1.56,4.14-1.85,2.69-.07,7.9-.8,9.7,1.09.72.7,1.56,1.28,3.32,1.18,4.51.01,11-.55,14.55-.21l.27.09Z"/>
    <path class="st7" d="M1179.26,745.21c1.45.81,2.91,2.6,4.45,3.99,1.72,1.99,1.52,5.05,2.79,7.23,2.26,3.41,1.18,6.13,1.38,10.18-.15,10.52.04,27.73-.28,33.22-.35,1.13-1.26,1.58-1.76,2.8-.64,1.52-.5,3.69-1.37,5.27-1.63,3.26-5.58,3.05-3.75-.73.53-1.05,1.33-1.36,1.58-2.39.23-5.48-.23-29.18.17-39.64.82-1.32,2.59-2.65,1.55-4.72-.44-1.1-1.02-2.17-1.33-3.31-.42-2.05-.24-3.94-2.02-5.62-1.12-1.27-2.81-2.36-3.88-3.5-2.42-2.11-.57-4,2.16-2.93l.3.15Z"/>
    <path class="st7" d="M1223.99,750.09c.74,1.09-1.18,2.69-2.04,3.33-2.25,1.6-2.92,4.92-4.75,6.83-.8.73-1.55,1.56-2.01,2.55-.8,1.71-.74,4.13-1.6,5.64-.87,1.7-1.5,3.29-1.5,5.93-.05,1.31-.22,2.8-.9,3.87-.65,1.09-1.46,1.88-1.72,3.39-.08,5.85.49,11.78-.1,17.71-.05,1.16.06,2.23.55,3.21,1.79,2.29,2.14,5.68,3.32,8.24,1.01,1.85.33,2.71-1.5,1.63-3-2.88-5.07-7.37-5.1-11.63.34-8.67-.17-17.43.16-26.07,1.97-5.12,2.83-10.02,5.26-13.88,2.32-3.82,5.88-12.95,11.74-10.92l.16.16Z"/>
    <path class="st3" d="M1257.81,729.99c-.92.84-4.25.76-5.76-.11-2.79-2.08-6.33-1.85-9.77-1.81-2.52.14-5.15-.36-7.47.59-2.65,1.58-5.72,2.96-8.59,4.18-3.85.4-8.4.23-12.33.11-1.45.01-3.6-1.38-1.27-2.2,1.81-.55,4.58.16,6.55-.42,1.24-.37,2.18-1.24,3.35-1.77,2.4-1,5.5-2.41,7.67-3.41,1.17-.83,1.63-1.76,3.22-1.65,4.31-.04,9.48-.05,13.89-.08,3.24-.34,3.25,1.03,5.76,2.19,1.77.8,5.1,1.93,4.91,4.21l-.14.17Z"/>
    <path class="st3" d="M1206.23,774.88c.63.75.76,1.97.79,3.01.03,7.67.37,15.55-.17,23.2-.56,3.55-2.64.78-4.98.35-4.29-.19-10.75-1.41-13.34,2.88-.46.85-1.01,1.91-1.53,2.63-.41.62-.76.87-1.11.52-1.04-1.35-.8-3.41-.25-4.84.53-1.37,1.48-1.76,1.72-3.07.36-5.59-.22-33.97.49-40.05.95-.95,1.51.88,2.13,1.78,2.55,5.39,5.26,12.87,12.63,12.53,1.44.01,2.68.14,3.4.81l.23.24Z"/>
    <path class="st3" d="M1262.47,750.16c.64,1.44.64,3.65-.73,4.68-1.4,1.06-2.97,2.89-4.27,4.29-2.85,1.21-7.05.46-10.16.49-.42-.06-.79-.22-1.12-.49-.47-.5-1.05-1.1-1.51-1.6-.7-.56-1.39-.89-1.23-1.63.18-.85,1.58-.91,2.99-.95,1.06,0,2.43-.44,3.19.06,1,1.29,2.1,3.14,3.57.72.94-1.36,3.2-.46,4.23-1.38.85-1.11,1.98-2.27,2.9-3.35.51-.68,1.13-1.26,1.94-1l.2.18Z"/>
    <path class="st3" d="M1262.84,747.32c-.26-1.27-.18-3.15-.06-4.55.11-.72-.02-1.69.19-2.22.29-.36,1.48-.34,1.85.12.51.97.32,2.39.39,3.5-.08,1.79.24,4-2.24,3.31l-.13-.16Z"/>
    <path class="st3" d="M1185.29,808.04c-.06.45.08,1.7-.47,2.13-.48.37-1.63-.11-2.1.36-.5.43.06,1.63-.36,2.1-.35.47-1.65.48-2.08.4-.25-.08-.07-.64-.1-1.3.06-.66-.06-1.23.16-1.28.39-.06,1.27.3,1.77-.12.59-.36.49-1.38.96-1.92.4-.56,1.69-.43,2.1-.48l.13.1Z"/>
    <path d="M1206.55,803.93c2.02,1.7,2.53,4.71,4.09,6.78,1.6,1.93,3.73,1.98,3.65,5.02.01,1.84,0,4.08,0,5.91-.06,1.47.02,2.4-1.01,3.04-1.2.39-2.87.84-3.93,1.71-1.46,1.16-3.7,1.1-5.5,1.49-1.72.52-2.5,1.68-4.49,1.94-1.08.12-2.21.11-3.29.08-2.83.06-4.03-2.13-6.74-2.27-3.2.06-4.39-1.92-7.11-2.63-.48-.16-1.1-.3-1.43-.7-1.08-1.56-.53-7.5-.58-9.48.34-2.2,2.72-3.2,4.14-5.05,3.16-1.94,3.15-6.7,6.66-8.34,3.18-1.29,7.17-.52,10.45-.61,2.06.16,3.53,1.54,4.86,2.9l.22.22Z"/>
  </g>
  <g>
    <g>
      <g>
        <path class="st4" d="M417.55,780.59c1.1-2.65,4.1-4.98,5.06-8.06.67-2.33-.07-5.3-1.11-7.75-.41-1.29-1.09-3.01-.27-4.03.65-.68,2.05-.87,3.14-.98,6.78-.27,13.86-.18,20.72-.07,9.95-.71,2.39,10.29,9.6,12.77,3.97,1.43,8.91,2.54,13.2,3.25,3.01-.26,7.26-1.52,10-3.43,2.62-3.02,4.93-7.72,4.14-12.12-1.81-8-5.84-15.48-9.48-22.79-4.27-7.24-13.58-10.64-21.55-12.14-2.62-.71-3.78-1.92-7.17-1.93-5.21.2-13.06-.38-17.69.36-8.06,3.17-17.58,3.61-24.53,9.1-3.76,3.26-5.23,8.05-7.64,12.24-4.39,8.21-6.1,16.87-8.29,25.67-.2,5.71-.62,12.76,1.67,18.11,1.57,7.16,3.02,13.54,7.17,19.39,4.05,4.76,8.73,10.17,14.36,12.94,4.89,1.03,14.3,7.25,16.82.07.81-2.32,1.47-5.48.09-7.63-2.11-2.63-5.79-6.01-8.95-9.27-1.48-1.26-5.78-5.64-3.1-7.03.72-.06,1.9.69,2.93,1.79,4.36,4.15,8.23,8.93,13.55,11.74,8.02,3.85,20.85,1.5,26.8-5.51,4.65-4.5,10.53-10.52,17.2-10.57,2.24.12,6.44,1.63,8.56,3.2,1.17,1.05,1.64,2.85,1.91,4.46.76,4.36-1.09,8.73-3,12.06-1.47,5.36-5.42,9.68-10.67,11.67-5.92,2.9-11.03,5.66-17.94,6.92-2.41.83-2.87,2-5.6,2.2-3.85.09-12.12,0-16.55-.02-3.47-.06-3.85-1.34-6.48-2.18-3.22-.9-7.44-1.29-9.69-2.9-5.06-2.78-11.11-4.39-15.02-8.74-2.35-2.86-5.78-5.37-7.96-8.19-2.54-3.82-4.32-7.94-6.39-12.07-1.75-2.47-2.23-6.72-2.95-10.13-.52-1.99-1.51-2.92-1.84-5.15-.35-4.11-.07-10.68-.09-14.82.12-3.34,1.43-4.23,2-6.95.5-3.17,1.45-6.4,2.34-9.25.9-9.63,7.17-17.28,12.25-25.04,1.57-1.38,3.84-2.19,5.6-3.39,2.73-2.09,5.36-3.98,8.67-5.2,2.92-2.08,6.69-2.58,10.67-3.44,2.31-.6,3.5-1.53,6.33-1.63,4.14.03,10.69-.23,14.8.11,2.12.31,2.95,1.08,4.93,1.63,3.18.83,7.57,1.12,9.98,2.75,3.54,1.78,6.75,3.23,9.55,5.92,1.67,1.23,3.92,1.85,5.53,3.29,2.7,4.4,6.65,8.75,8.5,13.23,1.96,3.42,3.1,7.2,3.82,11.68.57,2.37,1.71,3.57,1.89,6.67-.15,4.13.63,10.63-.89,14.53-1.25,2.46-5.05,2.61-7.24,3.94-1.69.66-2.12,1.9-3.79,1.94-8.24-.02-40.17-.17-55.31-.23-1.65.04-2.7-.03-2.62-.81l.02-.15ZM461.78,822.83c1.55-.56,4.24.3,5.43-.86.35-.33.78-.72,1.14-1.04,1.14-.96,3.25-.38,4.12-1.52,1.58-1.58,2.98-2.74,2.67-5.31.27-3.15-.06-6.18-2.98-7.84-1.44-.82-3.15-.53-4.94-.62-2.44.23-4.53-.62-6.58,1.12-.83.91-1.63,1.38-2.32,2.4.1-.02-1.02,1.13-1.06,1-3.26.48-6.54,2.64-6.37,6.43.02,1.75-.25,4.03.66,5.38,1.46,2.22,3.48,3.56,6.25,3.13,1.8.08,2.5-1.13,3.62-2.11l.33-.17Z"/>
        <path d="M416.87,743.46c1.15,2.31,1.02,5.76.02,7.89-1.24,2.38-2.65,6.72.59,8.24.97.56,2,1.14,2.37,2.36.63,2.3.11,5.7.25,8.3-.02,2.3.33,5.24-.48,7.08-2.8,5.05-7.2,8.75-6.91,15.3-.22,3.6.65,7.71-1.68,10.72-3.25,4.58-8.93,6.77-13.03,1.87-4.71-3.87-5.35-10.6-7.95-16.01-.71-2.64-.15-7.25-1.21-9.39-.4-1.16-.52-1.82-.37-2.55,2.1-4.57.5-11.16,1.61-16.11.52-1.53,1.44-2.22,1.92-4.15.52-1.78.75-3.81,1.97-5.23.9-.96,1.95-1.82,2.58-3.07,1.56-2.92,4.06-5.92,6.54-7.88,3.35-1.23,11.46-1.19,13.62,2.3l.17.32Z"/>
        <path class="st3" d="M414.44,795.82c-.38.03-1.49.24-1.88-.14-.29-1.19-.81-3.31-.06-4.46.51-.38,1.45-.15,2.09.02.55,1.18.05,3.22-.01,4.43l-.14.16Z"/>
        <path class="st3" d="M474.58,743.76c-1.87.39-3.41-2.23-5.23-2.72-4.03-1.55-10.46-1.19-12.34,2.57-.63,1.2-1.01,2.88-1.57,4.03-.35.73-.76,1-1.11.67-1.17-1.74-1.27-4.5-2.77-6.23-1.77-2.69-4.38-3.96-6.1-4.98-1.46-.75-2.71-1.47-4.44-1.68-5.06.01-11.65-1.02-15.88,1.72-2.26,1.08-4.41,3.31-6.75,4.56-1.94.77-4.96-.75-7.27-1.2-2.7-.36-6.04-.63-8.37.65-3.33,2.61-5.65,7.68-8.42,10.73-1.55,2.1-1.76,5.6-2.86,7.42-.32.67-.67,1.28-.88,2.01-.99,3.97.04,9.9-.91,13.7-1.26,3-.32,4.46.23,7.45.11,4.04.63,7.75,2.33,11.16,1.52,5.55,3.84,11.55,9.3,14.03,2.88,1.06,5.91-.53,7.82-2.7,1.98-2.21,3.64-3.71,5.62-2.2,3.36,2.82,7.53,7.55,10.22,10.08,1.34,1.22,1.57,2.67,1.51,4.52-.25,3.26-1.33,7.39-5.09,7.62-.95.08-2.06-.17-3.18-.52-5.33-1.93-10.77-2.59-14.94-6.56-4.27-4.39-9.31-8.49-11.77-13.85-2.02-5.09-3.79-10.3-4.56-15.72-.64-2.3-1.6-2.95-1.74-5.68-.04-3.22-.04-9.12.03-12.11.16-2.86,1.7-4.29,2.04-7.01.85-6.47,3.43-12.72,6.34-18.57,1.7-3.2,3.13-6.23,4.99-9.35,1.92-3.11,5.47-5.05,8.57-6.35,4.72-1.7,9.56-3.47,14.47-4.03,2.86-.7,2.95-2,5.97-2.01,5.62.15,13.75-.45,19.05.2,2.63,1.23,4.91,2.25,8.43,2.46,2.99.52,5.29,1.91,7.76,3.23,3.76,1.68,7.72,4.1,9.61,7.84.93,1.87,2.81,4.64,2.02,6.71l-.14.11Z"/>
        <path class="st2" d="M475.48,745c2.52.3,2.35,3.48,3.63,5.18,2.35,4.04,1.09,8.95,1.21,13.53-.15,2.56-2.1,4.03-3.73,5.76-.97,1.12-2.37,1.91-3.87,2.16-2.76.21-6.89.6-9.32-.8-1.31-.7-2.72-1.25-4.07-1.85-2.4-.89-3.38-3.76-4.41-5.82-.48-.89-1.17-1.66-1.19-2.28-.09-.72.65-1.58,1.11-2.64.8-1.66.26-4.16-.75-5.45-.62-.97-.99-1.64-.43-2.39.54-.76,1.19-1.43,1.52-2.33.48-1.41.27-3.19,1.1-4.51,2.4-4.13,8.44-3.73,12.52-2.81,2.49.75,3.85,3.66,6.35,4.17l.34.1Z"/>
        <path class="st3" d="M461.45,823c-.97.73-1.57,2.04-3.17,2.08-2.62.38-4.64-.31-6.19-2.41-.94-.99-1.19-2.3-1.17-3.65-.03-2.22-.3-4.84,1.47-6.37,1.02-1.16,2.16-2.1,3.71-2.15.88-.01,1.87-.69,2.24-1.33,1.05-1.28,2.2-2.5,3.68-3.26,2.73-.41,6.71-.43,9.43.01,2.19.98,3.94,3.05,3.73,5.72-.09,1.68.3,4.13-.56,5.48-1.45,1.72-2.66,3.31-5.2,3.3-1.62.41-2.13,2.29-4.07,2.19-1.19.08-2.61-.14-3.55.22l-.33.17Z"/>
        <path class="st3" d="M451.55,759.64c4.32.6,4.11,8.27,8.27,9.51,2.76,1.04,4.55,2.97,7.9,2.81,2.58-.03,5.1.31,7.18-1.1,2.35-2.26,4.95-4.06,5.19-7.95.03-.81.06-1.67.07-2.48-.19-2.23,1.17-4.96,2.07-1.51.3,2.01.44,5.04-.55,6.86-2.01,3.38-2.49,8.69-7.53,8.76-.7.05-1.48.11-2.12.36-1.36.46-2.43,1.7-3.8,1.92-2.26.1-3.82-2.44-6.34-2.26-1.21-.06-2.52.1-3.7-.16-1.87-.48-3.02-2.03-4.92-2.46-.42-.09-.91-.23-1.31-.38-1.55-1.03-.74-2.91-1-5.68.14-2.73-.54-4.74.44-6.13l.17-.1Z"/>
        <path class="st3" d="M419.63,776.34c-.42-4.37-.35-9.39-.04-13.78.11-.36.44-.54.91-.5,2.07.19,1.33,2.89,1.36,4.32-.03.77-.01,1.59.24,2.25.32.93,1.75.75,2.08,1.73.3,1.33-1.76,1.2-2.09,2.02-.63,1.65.75,4.77-2.28,4.15l-.19-.2Z"/>
        <path class="st7" d="M452.75,747.67c-.43.27-.96-.16-1.59-.76-1.67-1.9-3.36-3.82-5.41-5.35-1.46-.95-3.31-1.3-4.72-2.37-.77-.49-1.54-.98-2.47-1.14-2.61.02-5.94-.68-8.36.41-2.33,1.75-5.74,2.32-7.39,4.96-1.09,1.11-2.41,2.12-3.27,3.19-.76.77-1.35,1.44-1.93.87-.44-.4-.84-1.48-.68-2.41.27-1.8,1.56-2.93,2.93-4.12.73-.77,1.36-1.71,2.23-2.31,2.13-1.25,3.47-1.56,5.36-3.18,3.31-.8,10.12-.17,13.87-.38,1.89-.11,2.35,1.18,3.94,2.06,3.15.8,4.44,2.81,6.8,5.49,1.05,1.23,1.9,3.6.86,4.88l-.18.15Z"/>
      </g>
      <g>
        <path d="M304.83,738.62c1.05,2.82.84,6.55.95,9.61-.26,3.5-3.07,5.44-2.6,10.09-.04,2.07.2,4.15,1.08,5.95,1.55,2.78,1.9,8.4,4.49,10.97,1.28,1.57,3.48,1.88,4.84,3.33,1.68,1.86,2.46,5.12,4.61,6.17,1.7.21,2.21-2.27,3.22-3.46,1.16-1.48,3.05-3.72,4.8-3.75,1.85.29,3.47,1.17,5.5,1.63,3.65.54,4.82,3.54,5.55,6.67,2.02,4.48,3.43,11.67,1.46,16.67-1.75,4.82-3.26,9.49-5.68,14.08-1.47,3.09-3.29,5.94-7.01,6.28-2.91.12-4.99,1.12-7.49,2.04-1.69.34-2.84-.57-4.61-1.13-1.86-.68-4.12-.94-5.78-1.88-3.26-2.23-5.35-6.24-6.88-9.93-2.84-4.51-3.78-9.65-5.44-14.68-2.89-7.2-4.36-15.4-8.12-22.31-1.96-3.63-3.55-7.73-5.8-11.2-1.11-1.2-2.63-2.41-3.56-3.55-5.32-4.84-7.61-12.95-10.95-18.6-1.13-2.36-.55-5.41.24-7.83.96-2.74,1.84-4.63,3.64-6.72,1.41-1.17,3.61-1.53,5.34-2.17,2.9-.93,4.89-2.15,8.36-1.99,3.79-.09,6.21,1.56,9.57,2.47,3.77.86,7.32,3.65,8.28,7.46.49,1.86,1.1,3.68,1.85,5.43l.13.35Z"/>
        <path class="st1" d="M306.53,746.25c-1.89-1.93-.13-7.14.35-9.76.24-3.57-1.28-8.43-3.55-11.33-2.43-1.75-5.99-2.46-8.57-3.7-2.18-.96-6.99-.61-9.97-.66-3.48.14-7.12-.46-10.24.81-3.5,1.67-8.31,2.43-10.7,6-3.7,5.29-1.75,12.9,2.07,17.56,1.55,2.11,2.95,4.07,4.17,6.23,2.42,4.07,7.57,6.41,8.58,11.55,1.33,4.65,3.84,8.47,5.91,12.89,1.5,5.56,3.97,10.09,5.92,15.32,3.33,9.26,5.63,18.83,10.55,27.35,3.24,4.9,9.77,6.51,15.14,7.76,4.86-.66,9.91-2.67,13.87-5.62,6.87-8.29,7.73-19.95,12.96-29.19,2.3-6.04,3.65-12.5,6.65-18.09,1.23-2.8,1.81-5.38,2.9-8.25,1.99-4.99,5.9-8.96,8.58-13.56,3.06-3.37,6.23-6.32,8.22-10.2,1.87-3.48,2.47-9.38.41-13-1.53-2.69-5.39-4.43-8.08-5.36-2.27-.78-4.14-1.95-6.63-2.14-3.76-.01-9.61-.41-13.45.3-2.64.8-4.67,1.74-7.77,2.97-2.39,1.11-4.41,3.02-5.51,4.41-1.14,2.22-1.02,5.12-.72,7.72.4,2.22,1.19,4.57,1.67,6.71.62,3.89-1.12,4.47-3.2,2.18-3.23-3.03-4.21-7.8-5.52-11.94-.62-2.47.58-4.6,1.27-7.03.75-1.92,1.16-4.17,2.55-5.76,1.42-1.43,3.64-1.64,5.41-2.44,2.63-.87,3.33-2.1,6.76-1.98,1.03,0,1.95,0,3.06,0,8.13.27,17.25-.58,25.11.36,2.7,1.58,6.94,2.22,9.79,4.22,1.11,1.51,1.58,4.28,2.49,6.12.95,2.39,2.17,5.04,1.51,7.93-1.39,3.95-2.65,8.48-5.08,11.9-3.03,3.39-7.49,5-10.89,8.51-3.02,2.37-3.67,6.15-4.85,9.58-3.28,6.34-4.98,13.64-7.31,20.22-4.46,7.06-5.32,15.69-9.35,22.88-2.39,7.13-4.72,14.8-10.41,20.07-4.72,2.58-9.69,4.6-15.22,4.47-5.09-.77-10.43-2.11-14.51-5.61-1.15-1.25-2.55-2.35-3.5-3.73-2.01-3.02-2.48-7.3-4.35-10.21-2.47-5.4-3.97-10.91-5.13-16.82-1.53-3.35-2.27-7-3.07-10.65-2.22-4.24-5.24-8.43-7.08-12.9-1.71-5.53-3.66-10.95-7.1-15.7-2.73-5.5-9.74-6.81-12.54-12.25-1.43-3.65-3.22-6.82-3.83-10.81-.07-3.84,1.92-7.18,3.05-10.4.94-3.77,4.89-4.39,7.95-5.69,2.44-1.43,5.72-1.66,8.92-1.48,7.07.22,17.92-.43,24.78.31,3.7,1.92,9.34,2.52,11.88,6.45,2.87,4.96,4.54,9.6,1.53,15.22-.85,2.81-2.07,5.27-3.76,7.5-.45.62-1.34,1.24-1.99.86l-.16-.11Z"/>
        <path class="st3" d="M369.24,738.99c-.66-1.14-.93-3.52-1.5-4.96-.89-2.44-1.78-4.2-3.27-6.42-2.43-2.39-6.35-2.52-9.32-3.96-2.28-.75-5.04-.95-7.35-.67-3.56.25-3.72,1.85-6.69,3-1.83.93-2.66,1.6-4.09,2.99-3.45,3.22-5.15,4.5-4.79,10.24,0,1.74-.11,4.03.14,5.58.42,2.61,1.67,3.2,2.12,6.12.21,2.67.68,5.28,1.74,7.72.85,2.26,1.07,5.66,3.21,7.04,1.79,1.17,4.47,1.63,7.2,1.53,1.53-.02,3.99.36,4.21,2.03.2,1.36-.64,3.24-1.23,4.57-3.66,6.39-4.32,14.23-7.85,20.75-1.22,1.92-1.77.49-2.17-.93-.71-2.7-1.79-5.23-2.54-7.64-.64-2.06-1.03-4.31-2.82-5.32-1.38-.85-3.29-1.12-4.72-1.72-1.34-.56-.97-1.59-.64-2.75.66-2.28,1.5-5,2.45-6.97,1.3-2.76.6-8.08.75-11.48.09-4.08.26-7.31-1.62-10.91-1.46-5.91-4.65-12.51-2.31-18.53.77-1.06,1.58-1.44,2.98-2.93,1.87-2.03,5.26-2.41,7.69-3.6,4.45-2.6,11.46-1.05,16.4-1.41,1.57.04,2.63.52,3.89,1.23,4.07,1.72,10.09,3.16,11.57,8.18.37.98.91,10.81-1.3,9.38l-.13-.17Z"/>
        <path class="st1" d="M331.89,752.11c.59,3.43.05,9.99.25,13.79-.15,2.28.62,2.95-1.14,3.67-2.78,1.17.09,5.5-2.13,6.78-1.08.48-2.73.77-3.7-.03-.93-1.08-.93-4.13.94-4.62.44-.22.84-.56,1.04-1.02.43-1.76-1.37-5.39,1.12-6.22.53-.24,1.17-.47,1.28-1.12.4-2.3-2.3-11.93,2.15-11.32l.17.09Z"/>
        <path class="st7" d="M312.56,776.5c-.62.36-2.05.26-3.22.21-1.04-.04-1.49-.65-1.46-1.94.02-.6-.03-1.31-.18-1.9-.31-.94-1.75-1.05-2.01-2.17-.42-4.99-.5-10.4.07-15.41.18-.52.5-.87.88-.95,3.21.33,1.16,8.6,1.66,10.77.06.44.21.78.45,1.02.57.55,1.67.67,1.88,1.6.43,1.56-.41,3.8.05,5.37.37,1.21,3.18,1.6,2.08,3.22l-.21.18Z"/>
        <path class="st3" d="M305.83,752.35c.43,1.42-.33,3.7-.28,5.31-.17,2.12.36,4.4-.28,6.46-.3.47-1.48.3-1.87.14-.42-.2-.2-.58-.25-1.39l.03-5.84.02-3.44c.02-.66-.11-.89.46-1.13.54-.2,1.68-.36,2.01-.27l.17.15Z"/>
        <path class="st3" d="M305.85,737.5c-1.38-.04-2.01-1.86-2.25-3.14-.69-4.45-4.25-7.9-8.74-8.81-4.51-1.66-10.48-3.94-15.21-1.62-2.59,1.44-6.17,1.51-8.5,3.29-2.05,2.37-3.48,5.96-4.34,9.12-.24,1.45-.33,3.1-.06,4.55.65,2.25,1.88,2.81,2.95,6.1.35,2.14,3.63,6.14,3.05,7.51-.06,0-.19.02-.25.02-2.88-.9-3.15-4.56-5.03-6.74-6.2-5.92-9.25-18.56-.47-23.56,2.08-1.19,5-1.36,6.45-2.44,1.3-.87,2.38-1.38,4.08-1.33,4.71.14,12.75-.32,16.8.21,3.25,1.76,4.96,2.15,8.37,3.31,3.31,1.39,3.17,6.08,4.51,9.02.7,1.52,1,4.15-1.08,4.5h-.28Z"/>
        <path class="st3" d="M307.42,822.51c-1.06,1.08-4.62-.63-5.43-2.47-2.04-3.89-3.79-7.19-5.5-11.25-.52-2.58-1.47-4.64-2.65-7.01-.54-1.6-.58-3.53-1.28-5.02-1.1-2.06-1.52-4.37-2.22-6.53-1.23-2.91-2.78-5.31-4.02-8.27-.77-3.25-1.83-6.69-3.53-9.36-.73-2.46-6.05-8.43-3.4-10.31.98-.42,2.41,1.08,2.95,2.07,2.58,5.73,5.65,10.36,8.12,16.28.64,3.4,2.08,5.81,2.9,9.16.5,2.92,2.3,4.65,2.76,7.81.83,3.25,2.41,6.07,2.75,9.31,2.05,3.23,3.9,7.83,6,11.26.77,1.33,3.23,2.44,2.69,4.17l-.13.16Z"/>
        <path class="st3" d="M317.62,825.59c.12.3.06,1.1-.2,1.52-.46.73-1.92.6-2.09-.31-.11-.66-.11-1.33-.76-1.69-1.84-.58-6.57,1.31-6.77-1.8-.03-.58,0-.84.41-.82,1.01.04,4.67.18,6.07.24.32.01.5.08.65.4.14.31.3.87.52,1.24.39.77,1.56.76,2,1.02l.16.2Z"/>
        <path class="st3" d="M324.8,822.84c.06.25.22,1.06-.02,1.53-.69,1.17-3.63.76-4.64.41-.72-3.31,2.7-1.87,4.5-2.04l.16.1Z"/>
        <path d="M368.35,740.47c-.92,2.48-2.14,4.48-3.35,6.83-2.26,2.58-5.03,4.91-6.41,8.19-.7,1.62-1.88,2.83-3.09,4.05-2.14,3.02-2.85,7.02-7.45,7.33-4.32.45-10.38,0-11.02-5.31-.22-3.14-2.11-4.81-2.32-7.76-.03-1.9-.23-4.92-1.16-5.84-.54-.77-1.13-1.41-1.31-2.89-.15-1.26-.06-3.04-.06-4.47.25-3.18-.67-5.73,1.3-7.92,2.2-2.01,4.67-5.17,7.61-6.42.73-.35,1.4-.63,1.91-.86,1.58-.57.98-1.35,2.78-1.78.63-.14,1.17-.23,1.87-.29,2.35-.23,5.24-.2,7.59.63,1.48.65,2.74,1.36,4.5,1.69,1.7.36,3.4.69,4.56,1.91,2.33,3.7,4.95,8.05,4.12,12.54l-.09.37Z"/>
        <path class="st3" d="M368.3,742.8c-.04.56.48,1.29.03,1.94-.42.61-1.47.36-2.17.36-.02-.57-.16-1.28.07-1.98s1.42-.35,2.07-.32Z"/>
      </g>
    </g>
    <g>
      <g>
        <path d="M862.03,701.7c2.29,3.56,3.43,7.96,6.59,11.12,1.76,1.73,3.6,3.69,5.34,5.32,2.11,1.7,2.93,3.79,3.62,6.38.61,2.53,2.42,4.94,1.41,7.41-2.37,6.64-8.25,10.47-12.35,15.86-1.42,2.32-1.04,5.36-1.95,7.83-1.34,3.69-2.69,8.56-5.48,11.84-2.64,4.6,1.77,9.42,3.3,13.38,1.02,5.42.16,12.19.44,17.93-.12,3.73.81,4.5,1.93,6.42,1.73,2.74,3.43,5.83,6.78,7.16,4.15,1.59,10.09-.31,14.02,2.13,2.29,1.79,1.66,6.63-.15,8.95-1.91,2.25-5.38,1.96-8.05,2.65-1.62.42-2.73.98-3.48.98-.89.12-2.55-.77-3.8-1.05-2.71-.61-6.97-.17-9.05-1.29-1.34-.56-2.81-1.09-4.4-1.58-4.31-.78-7.3-4.91-9.04-8.3-1.88-4.84-4.82-10.88-3.88-16.11.51-2.43,1.54-2.93,1.85-5.46.38-3.45-.15-8.99.5-12.13.83-3.09,2.9-5.35,4.04-8.12.81-2.23-.43-5.4-1.32-7.59-3.34-5.45-4.34-11.78-6.65-17.54-4.08-5.33-9.51-8.8-10.81-16.1-.26-3.58-.96-8.84,1.22-11.52,2.17-2.47,5.1-4.72,7.12-7.28,2.22-3.42,3.19-7.76,4.72-11.66,4.06-6.8,13.11-6.98,17.35.05l.18.3Z"/>
        <path class="st1" d="M874.36,717.31c-.74.46-1.68-.42-2.37-.93-1.63-1.49-2.77-2.69-4.2-4.24-2.51-3.58-3.55-7.92-4.95-12.02-.05-5.17-1.32-9.98-3.35-14.71-2.42-5.39-9.5-3.05-12,.96-4.62,5.83-4,13.84-7.4,21.12-4.41,7.95-16.09,11.64-16.12,21.95-.41,11.72,17.02,8.52,17.1,20.74.17,3.06,2.05,4.56,2.34,7.61.02,5,.17,15.92-.03,21.23-.42,2.95-2.37,2.51-2.38,6.13-.02,5.96,0,14.77,0,21.14-.14,3.48,1.14,4.07,2,6.74,1.63,5.13,3.73,11.08,8.78,13.82,4.57,1.79,8.28,3.45,13.61,3.45,3.12,0,5.41,1.85,8.34,2.02,2.05-.02,4.11-1.12,6-1.61,3.8-.7,8.37-1.38,11.14-3.53,2.78-1.34,5.47-2.84,7.89-4.88,4.3-4.31,8.03-14.09,3.07-19.56-2.65-2.28-7.36-1.99-10.14.14-1.26.92-3.09,2.99-4.24,3.69-3.8,1.9-1.23-4.21-.03-5.95,1.29-2.55,2.23-5.55,4.26-7.55,2.53-1.61,6.06-2.6,8.67-3.02,7.11.55,11.83,8.62,10.87,15.51-.37,1.85-1.18,3.41-1.61,5.28-.62,6.51-3.02,11.54-7.63,15.6-4.65,5.27-10.24,8.89-17.09,9.18-2.32.64-3.18,1.98-6.07,2.21-4.4-.23-11.1.99-15.4-.77-3.38-1.83-8.04-2.52-11.2-5.01-6.19-2-11.08-6.51-12.86-12.91-.42-1.34-.96-2.82-1.47-4.04-.98-2.44-2.2-2.73-2.07-6.31,0-4.67-.03-13.21-.03-17.87-.04-1.8.15-2.9.65-3.77,1.28-1.88,2.21-4.43,1.83-6.82-.19-6.84-.03-21.34-.07-27.54.27-2.53-.41-4.07-1.61-6.54-2.02-3.26-4.51-5.1-8.54-5.79-2.08-.3-4.33-.52-5.87-1.2-2.02-.81-4.08-1.53-6.16-2.22-4.31-1.36-4.44-6.7-3.92-10.56.42-3.91,3.93-5.8,7.14-7.18,5.67-1.67,11.41-3.11,14.78-8.15,2.37-3.56,4.46-5.89,4.22-10.78.31-4.25-1.37-10.93,1.71-14.61,1.4-2.24,1.27-6.22,3.91-7.69,3.2-1.44,7.03-1.7,10.37-2.93,3.07-.68,6.74,1.56,9.25,3.7,2,2.76,4.05,5.3,4.37,8.69.09,5.07.03,11.42.06,16.65-.05,2.14-.02,4.92.94,6.1,1.31,1.95,5.66,4.2,5.62,6.94l-.06.1Z"/>
        <path class="st3" d="M880.76,812.05c-.17-1.16,2.57-1.96,3.43-2.61,3.27-2.19,5.49-6.17,9.14-7.86,11.8-4.34,12.81,9.99,7.96,17.14-2.04,4.1-6.54,6.45-10.5,8.42-2.47,1.69-5.83,2.95-9.58,3.17-2.62.28-4.74,1.99-7.53,2.09-2.53-.1-3.85-1.47-6.34-1.93-5.98-.1-9.91-1.36-15.24-3.44-3.36-1.57-5.38-5.13-7.02-8.21-.91-1.96-1.4-4.27-2.14-6.35-.83-2.35-2.06-2.81-1.91-5.86,0-6.43,0-15.72,0-21.93-.14-3.68,2.07-3.06,2.41-6.02.22-4.61-.18-17.27.14-22.63,1.19-4.26,3.08,5.78,4.02,6.5,1.43,2.29,3.27,6.41,2.8,9.38-.69,2.28-2,3.81-3.08,5.95-1.36,1.74-1.59,6.24-1.47,9.29-.05,1.82.02,4.08-.16,5.69-.59,3.25-2.54,5.23-2.07,8.73,1.79,7.26,3.49,15.81,10.33,20.19,4.44,1.46,7.65,3.54,12.92,3.56,2.98-.37,5.51,1.88,8.06,1.24,3.09-1.53,8.28-.78,10.54-3.46,1.81-2.32,2.43-7.18.15-8.98-1.29-1.13-3.49-.92-4.76-1.95l-.1-.14Z"/>
        <path class="st8" d="M870.55,744.65c-.4-2.69,3.97-3.83,5.41-4.84,3-2.92,9.17-1.15,12.3-2.45,4.21-2.14,10.19-4.05,8.09-10.11-.41-1.22-1.06-2.22-2.12-2.89-3.26-1.56-5.66-3.64-9.46-3.8-2.41.27-8.31-2.29-7.09-4.4.63-.61,2.54-.53,5.07-.51,5.73.47,11.02-1.12,14.62,1.34,1.09.78,2.52,1.07,3.86,1.3,5.18,1.16,8.8,6.07,8.15,11.51.35,5.92-4.82,10.42-10.43,11.19-2.01.66-3.98,2.23-5.69,1.38-.86-.35-1.61-.85-2.47-1.2-3.22-.9-7.88-.48-11.22-.27-3.01.48-6.02,3.8-8.9,3.83l-.11-.09Z"/>
        <path class="st3" d="M877.35,718.2c1.62.05,2.72,1.95,4.67,2.36,2.24.43,5.21-.43,6.79.78.56.46,1.1,1.02,1.71,1.41,1.04.6,2.75.54,3.68,1.31,3.99,2.55,3.76,8.72-.41,10.83-1.65.76-3.54.6-4.69,2.34-1.51,1.3-8.25.43-10.27.78-1.65,0-1.52,1.33-2.46,1.99-.74.45-1.64-.25-1.08-1.15.92-1.12,1.86-2.88,2.21-4.5.38-.96,1.29-1.21,1.82-2.04.4-.61.51-1.59.3-2.44-.38-1.75-2.11-2.16-2.29-3.99-.16-1.12.05-2.53-.32-3.63-.29-.9-1.02-1.51-1.54-2.17-1.19-1.31.31-2.09,1.51-1.9l.37.03Z"/>
        <path class="st1" d="M869.58,745.48c1.52,2.53-1.41,4.21-1.71,6.58-.08,3.36-.35,11.26-.07,15.22.61,2.14,2.62,3.6,2.28,6.1-.05,2.29-1.94,3.28-2.32,5.26-.1,3.86-.07,18.48-.12,25.34,0,2.37.11,4.01-.64,4.14-.61.14-1.34-1.51-2.17-2.78-.56-1.06-1.22-1.6-1.69-2.6-.69-4-.12-14.52-.29-19.02-.08-1.89,1.2-2.01,2.04-3.27.31-.58.32-1.53.31-2.83,0-5.07,0-15.35,0-18.93.16-3.89-.87-13.15,4.22-13.35l.16.15Z"/>
        <path class="st7" d="M884.7,807.98c-.1.7.3,2.05-.52,2.45-.62.3-1.97.5-2.42-.09.12-.63-.12-1.77.56-2.17s1.66-.25,2.38-.19Z"/>
        <path class="st3" d="M862.14,701.29c-.71.48-1.8-.82-2.64-1.83-2.21-3.34-6.2-3.11-9.71-2.42-1.92.8-3.38,3.02-4.79,4.12-2.39,1.09-1.26-4.39-1.53-5.76-.27-2.38.99-3.26,2.06-5.04.33-.78.25-1.86.55-2.49.38-.84,1.37-1.24,2.12-2.04,1.54-1.34,2.62-3.43,4.81-3.83,3.69-.82,7.71,2.01,7.42,6.02,0,.73-.05,1.62.19,2.28.41,1.19,1.75,1.72,2.04,2.96.16,2.01.12,6.03-.34,7.85l-.18.18Z"/>
        <path class="st3" d="M843,701.84c1.18,1.76.46,5.36-1.12,7.02-.99,1.22-.58,2.99-1.53,4.14-1.63,1.61-3.84,3.95-5.6,5.71-1.67,1.65-3.45,2.38-3.43,4.78.18,3.63-.94,8.92,1.12,12.09.93,1.18,1.98,3.86.41,4.62-.91.3-1.98-1.31-3.36-1.76-4.82-1.13-5.96-5.63-5.53-10.15-.21-4.19,2.49-6.08,5.35-9.2,3.15-3.43,6.59-6.47,10-9.81.46-.45.9-.91,1.17-1.52,1-1.09-.03-7.19,2.34-6.12l.17.2Z"/>
        <path class="st3" d="M865.01,757.21c.37.13.17.54.22,1.38,0,3.07,0,6.65,0,10.19-.21,3.38.45,10.69-.28,12.43-.38.22-1.27.35-1.71-.09-.39-.36-.47-1.01-.88-1.46-.56-.62-1.57-.93-1.82-1.82-.25-.73-.04-1.74-.35-2.47-.49-1.11-2.02-1.48-2.09-2.86-.13-1.33-.22-2.97.09-4.19.59-1.91,3.38-3.49,4.39-4.95.77-1.84-.79-6.57,2.22-6.21l.2.05Z"/>
        <path class="st3" d="M843.36,754.89c-.29-.01-1.42.07-1.82-.2-.74-.79-.47-2.53-.53-3.6.12-1.07-.03-2.53.24-3.43.24-.23,1.37-.12,1.8.13,1.01,1.84.29,5.02.45,6.97l-.13.13Z"/>
        <path class="st3" d="M865.22,706.18c-.57,0-1.68.34-2.17-.2-.39-.43-.1-1.63-.16-2.16.61.17,1.52-.03,2.08.31.69.42.12,1.48.25,2.05Z"/>
      </g>
      <g>
        <path class="st1" d="M611.75,806.83c-2.2,2.26-7.37,2.53-10.17,5.11-9.11,5.75-5.31,12.8,3.38,15.63,5.46.85,14.93.04,21.03.28,3.98-.46,6.42,1.23,10.03,2.11,3.48.68,8.76-.19,12.06.97,3.77,1.81,7.86,1.97,12.06,1.82,5.81.15,9.53-1.92,14.38-4.18,3.22-2.88,3.16-10.11.19-13.14-6.22-4.76-14.55-6.31-19.61-12.76-2.56-3.28-3.59-7.69-5.19-11.42-.12-6.29-.16-28.8.01-39.13.32-1.75,1.45-2.82,2.04-5.55.47-1.79.3-3.81.66-5.61,1.81-5.61,3.15-11.68,1.61-17.95-1.43-5.4-3.06-10.56-4.32-15.75-.12-3.09-.01-8.87.09-12.15.16-2.79,1.34-4.03,1.87-6.59.81-4.47-1.48-8.54-2.87-12.55-4.02-8.25-13.12-10.12-21.18-11.71-2.82-.71-3.38-1.88-7-1.98-5.7.36-12.82-1.05-17.82,1.16-2.51,1.33-6.54,3.5-6.64,6.99.16,8.44,11.06,9.38,17.15,11.9,3.08,1.04,5.77,4.12,7.81,6.92,1.83,3.51,2.67,6.73,4,9.38.37,3.16.03,5.52.13,9.16-.04,18.21-.07,60.69-.14,81.5-.03.96-.65,1.4-1.11,2.31-.62,1.16-1.42,3.78-2.15,5-1.28,2.01-2.26-1.17-2.12-2.34,0-20-.04-75.23-.04-93.19-.13-4.31.29-6.56-.22-8.42-1.66-2.94-3.64-6.43-7.14-7.42-4-1.64-11.75-.48-16.37-1.17-2.71-.57-4.56-1.6-7.55-2.65-2.6-.61-4.22-2.44-4.96-5.14-2.37-5.01-1.41-9.84,2.08-14.5,2.89-1.97,8.07-3.68,10.86-3.43,3.42,1.19,6.75,1.72,10.63,1.48,2.14-.03,4.48.08,6.56-.05,3.29-.14,5.04-1.73,7.02-1.57,1.45.09,2.72.77,4.17,1.1,2.18.7,6.5.24,9.25.67,7.5,2.15,18.16,4.6,20.67,13.01,1.02,3.56,3.28,6.68,2.32,10.91-.49,2.25-1.67,4.25-2.02,6.27-.17,6.2.14,15.63,0,22.03-.19,3.29.22,4.57,1.57,7.12,2.1,3.07,3.16,6.92,2.58,10.93-.75,3.36-1.83,7.03-1.86,10.97-.24,2.27-1.37,4.14-2.07,6.23-.72,2.19-.13,4.12-.23,6.13.04,10.95.07,31.45.1,40.57-.18,4,1.85,5.97,3.71,9.06,3.38,3.25,8.51,4.08,13.01,5.1,4.94,1.01,8.94,2.11,12.85,4.59,2.17,2.84,1.7,8.39,1.5,12.01-.43,3.5-3.4,5.38-5.74,7.88-2.97,2.63-7.28,3.08-10.52,4.73-3.96.93-10.25.37-14.15.37-4.28-.78-5.91-3.09-11.01-2.33-2.8.09-4.71-.02-6.49-1.02-1.86-1.56-3.21-1.97-5.85-1.78-7.28,0-22.54-.01-30.45-.01-3.78.34-5.57-.57-8.94-2.01-1.99-.93-4.73-1.19-6-3.12-1.65-3.59-1.43-9.25-.48-13,3.29-7.34,18.11-10.44,24.96-7.89l.05.11Z"/>
        <path class="st7" d="M620.45,798.69c.08.39-.04,1.37.06,2.11,0,.74.29,1.72-.12,2.13-.51.44-1.95.3-2.11,1.17-.22.64-.03,1.42-.66,1.53-.91.13-2.08.05-3.1.08-1.02.09-1.49-.21-1.44-1.12-.02-.43-.03-.91.29-1.25.74-.21,4.08.03,4.24-.22.52-.74-.62-4.85,1.19-4.64.47-.04,1.04-.07,1.51.02l.14.18Z"/>
        <path d="M649.82,691.28c.05,4.37-.15,11.41-.11,16.35.06,2.75,1.55,3.93,2.21,6.8.67,9.05.2,18.85.31,27.73-.06,1.63,0,3.36-.43,4.91-1.03,3.5-2.48,3.65-2.11,6.91,0,9.74-.02,31.14,0,36.92.01.89.3,1.51.79,2.21,1.62,2.27,1.72,5.79,3.35,8.09,1.88,2.26,4.3,4.65,6.74,6.26,2.24,1.82,5.24,2.3,7.36,4.2,3.69,3.13,5.28,9.7,1.97,13.76-2.72,2.63-6.75,2.64-10.27,4.11-5.68.92-11.41.71-17.37.12-2.8-.63-4.1-1.82-7.19-1.92-2.78.02-4.43-1.37-7.2-2.19-8.01-.87-17.16-4.23-14.33-13.89.68-1.51,1.97-1.84,2.92-3.36.5-.76.94-1.72,1.49-2.5,1.32-2.2,4.06-2.99,5.76-4.85,1.51-1.94,1.7-5.92,3.23-7.59.47-.56.72-.85.69-1.49,0-20.5,0-54.57,0-78.04-.01-6.76.02-11.58-.02-13.25-.36-1.22-1.36-1.75-2.34-2.82-2.85-3.08-2.4-8.12-6.02-10.8-3.7-2.9-4.74-7.61-2.6-11.66,1.06-2.14,3.69-2.49,5.75-3.18,1.48-.43,2.64-.98,3.67-1.47,3.13-1.19,9.03-.88,12.54-.3,1.41.43,2.57,2,3.75,3.19,1.55,1.65,3.95,3.26,4.59,5.38.69,3.93,3.07,7.87,2.85,12.01v.36Z"/>
        <path class="st3" d="M650.43,691.15c-.82-1.42-.57-3.45-1.25-5.06-.47-1.33-1.1-2.3-1.47-3.62-.5-1.57-.25-3.55-1.18-4.74-.6-.88-1.54-1.61-2.68-2.67-2.33-1.85-3.09-4.43-5.66-5-2.24-.16-8.22-.33-10.53-.09-2.02.45-3.3,2.13-5.49,2.32-12.28,1.53.29,15.28-17.03,7.57-5.79-.73-12.08-8.27-6.75-13.27.95-.8,2.17-1.26,3.21-1.91,2.21-1.06,2.68-2.3,5.43-2.21,4.84,0,10.46,0,15.2,0,1.36,0,2.17.27,2.71.73,1.59,1.99,5.1,1.66,7.45,2,1.08.2,1.83.55,2.54.93,1.48,1.03,4.23,1.36,6.23,1.99,1.05.41,1.83,1.14,2.62,1.96,1.72,2,4.76,4.02,5.5,6.62.34,1.2.44,2.56.85,3.72.83,1.93,2.23,4.12,1.96,7.14.01,1-.26,4.53-1.52,3.77l-.14-.18Z"/>
        <path class="st3" d="M617.54,806.3c.42.87-.72,1.88-1.22,2.56-1.77,2.17-2.82,1.22-3.06,4.27-.06,2.21-.29,3.8.81,6.21,1.07,2.49,4.07,2.97,5.82,4.11.97.55,1.78,1.25,2.94,1.43,1.92.43,8.53-.45,7.25,2.35-5.54.61-22.23.2-25.25.25-1.25-.36-1.62-1.9-3.06-2.16-4.21-.68-7.06-5.31-4.84-9.28,1.14-1.78,2.95-3.14,4.5-4.46,2.18-1.09,4.04-1.99,6.02-3.17,1.64-.56,4.03-.35,5.19-1.36,1.24-.91,3.38-1.95,4.74-.91l.15.16Z"/>
        <path class="st3" d="M620.9,802.63c-1.12-1.47.65-3.43,1.14-5.1.62-1.58.98-3.79,1.71-5.1.44-.97,1.28-1.28,1.58-2.15.15-26.18.1-63.25.19-90.26,0-.2,0-.38,0-.54-.22-1.32,1.74-.95,2.22-.02.29,8.49,0,83.74.11,93.07,0,1.03-.73,1-1.43,2.24-1.34,2-1.42,8.71-5.35,7.99l-.16-.14Z"/>
        <path class="st3" d="M650.15,830.46c2.69-.95,7.02-.1,9.94-.72,1.36-.34,2.09-1.58,3.4-1.98,1.31-.38,3.12.04,4.27-.47,2.65-1.42,4-4.25,4.02-7.62.03-.76.07-1.74-.07-2.44-.05-1.78-4.07-3.13-1-4.24,1.93-.33,3.96,1.48,5.02,2.91.95,1.45.67,3.21.74,5-.04,1.66.06,3.28-.21,4.86-.4,1.46-1.56,2.18-2.58,3.11-1.46,1.83-5.32.15-6.84,2.17-.49.55-.63,1.14-1.35,1.3-1.07.15-3.83.02-6.89.05-2.75-.35-10.46,1.09-8.66-1.75l.21-.19Z"/>
        <path class="st3" d="M652.29,737.44c-.27-5.2-.43-10.99-.06-16.18.1-.37.43-.54.92-.5,2.08.2,1.05,2.85,1.34,4.34-.03,4.08.33,8.19-.3,12.24-.28.54-1.49.5-1.77.3l-.13-.21Z"/>
        <path class="st3" d="M639.76,829.76c-1.61-.27-8.41,1.46-6.82-1.93,1.25-.11,2.99-.16,4.38-.26,1.75-.09,3.07.11,2.59,2.1l-.15.1Z"/>
      </g>
      <g>
        <path d="M976.11,704.72c1.98,3.55,3.25,8.07,6.35,10.56,3.98,4.14,10.2,9.08,11.05,15.41-.2,2.35-2.13,5-3.33,7.31-1.36,1.78-3.79,2.49-5.68,3.63-1.12.69-1.72,1.65-2.66,2.45-1.87,1.78-4.17,3.31-4.69,6.03-1.23,5.89-4.55,9.8-11.31,9.61-8.36.9-10.02-7.61-12.24-13.77-1.11-2.33-3.3-3.71-4.9-5.55-1.58-2.46-2.97-4.85-3.58-7.56-.21-3.25-.42-7.36.31-10.61,1.37-3.31,5.16-5.07,7.34-7.89,2.54-3.35,3.58-7.27,6.07-10.75,4.93-6.76,12.55-5.74,17.13.87l.15.27Z"/>
        <path class="st1" d="M952.38,745.29c2.56,1.01,2.22,5.41,2.36,7.29.03,1.87-.02,5.55-.01,7.97-.02,8.75-.06,22.42-.09,30.48-.06,2.83.11,4.88-.16,5.99-.46,1.28-1.26,2.43-1.6,3.81-1.1,3.08,1.57,5.36,1.92,8.29.29,7.13,4.34,13.07,9.95,17.22,4.27,1.72,8.23,3.34,13.1,3.77,2.68.21,4.64,1.84,7.11,2.14,2.47.08,4.06-1.33,6.76-1.86,6.29-1.08,12.31-2.5,18.01-5.92,3.87-2,5.79-5.69,6.78-9.67.74-2.12,1.68-3.94.81-6.05-1.37-2.69-1.03-7.02-4.65-7.75-2.23-.39-4.93-.32-7.11.35-4.43.97-4.17,7.1-8.16,8.5-1.07.47-3.25.44-2.82-1.19.4-1.2,2.13-2.12,2.87-3.53.65-1.24.81-2.71,1.22-4.06,1.08-3.2,2.6-5.95,4.83-8.42,2.6-1.47,6.29-2.51,9.09-2.77,1.34.09,2.56.57,4.03,1.04,1.91.72,4.31,1.04,5.47,2.85,1.33,2.58,1.74,5.58,2.93,8.26.58,1.45.73,2.94.2,4.23-.38,1.05-.88,1.98-1.24,3.06-.76,1.77-.37,4.63-.96,6.57-.62,1.88-1.37,3.17-2.28,4.66-.97,2.11-2.47,3.73-4.29,5.33-4.41,4.57-9.02,8.97-15.89,9.36-3.42-.13-4.22,2.35-8.04,2.44-3.54.02-9.92.11-12.92,0-2.38-.21-3.07-1.46-5.14-2.15-3.9-.6-7.59-.99-10.87-3.48-2.73-1.35-6.14-2.33-8.03-4.8-2.86-4.71-3.36-8.9-5.61-14.19-.34-3.11-.63-6.31-2.16-9.13-1.12-2.68,1.01-5.52,1.55-8.19.43-1.84.23-4.02,1.01-5.73.47-1.16,1.26-1.97,1.6-3.14.47-1.87-.1-5.94.11-10.19.26-3.08-.33-6.08-1.92-8.61-1.17-4.1-.25-10.63-.48-15.1.02-1.5.47-2.5.94-3.73.46-1.23-.84-4.22,1.54-3.99l.26.06Z"/>
        <path d="M976.01,799.37c2.44,5.08,5.72,13.13,12.62,13.18,3.66.19,5.04-1.62,8.28-1.99,3.86-.31,7.36,3.68,6.35,7.51-.61,2.28-2.8,4.18-4.66,5.7-1.94,1.38-5.11,1.38-6.76,2.43-.63.34-1.19.76-1.87,1.03-2.91.75-8.34.41-11.3.23-1.22-.25-2.1-1-3.24-1.53-1.56-.69-3.76-.87-5.22-1.59-1.48-1.32-2.78-1.54-4.83-2.58-1.51-.79-3-2.67-3.98-3.41-.67-.63-1.14-1.13-1.4-2.27-.22-1.75-.86-4.55-2.12-6.3-1.27-3.5-.38-9.82-.57-13.54.2-2.29,1.59-3.41,2.6-5.6.73-1.34,1.12-2.32,1.94-3.11,1.67-1.76,4.53-1.39,6.63-.57,2.08,1.24,3.83,2.93,5.03,4.94.98,2.5,1.1,5.12,2.35,7.17l.13.29Z"/>
        <path class="st4" d="M982.29,744.5c-.4-.71.02-1.07.34-1.65,1.52-2.26,5.5-2.17,7.64-3.27,1.47-.76,3.33-1.44,4.71-1.53,1.88-.25,4.12.13,5.54-.97.37-.35.66-.75,1.35-1.06,4.01-1.42,7.93-4,5.94-8.7-.67-2.02-2.48-3.17-4.26-3.98-1.95-1-3.86-2.27-6.09-2.56-3.74.28-6.92-1.86-10.35-2.44-.9-.16-3.54-.72-2.59-1.94,4.82-.94,17.63-.26,21.56-.49,1.19.02,1.98.62,2.89,1.28,1.07.78,2.68,1,4.01,1.25,4.23.91,7.7,5.13,7.74,9.45-.06,5.1.96,10.93-4.72,12.26-3.54.56-4.34,1.69-7.03,2.7-3.29.21-14.13.05-19.58.11-3.21-.46-4.14,3.12-6.94,1.69l-.15-.15Z"/>
        <path class="st8" d="M981.47,713.08c-.81.64-2.17-1.72-3.09-3.9-2.05-3.58-.78-8.28-1.62-12.35-.86-2.68-1.87-5.28-2.6-8.01-1.6-5.66-9.65-5.67-13.33-2.11-1.95,1.66-3.32,3.26-3.65,6.26-.17,1.43-.23,3.05-.67,4.39-2.25,4.97-3.03,11.06-6.63,15.08-3.85,2.62-.75-2.75-.59-4.65.44-2.44,1.76-3.89,2.34-6.05.29-3.55-.21-8.48.02-12.11.23-2.35,1.4-2.7,2.19-4.48.83-1.81.93-4.36,2.04-5.91.81-1.19,2.16-1.59,3.4-2.35,4.87-2.92,12.7-3.73,17.98-1,2.47,1.68,2.24,5.41,3.66,7.91.32.7.68,1.45.82,2.18.46,2.46-1.97,4.15-1.89,6.68-.06,2.78-.14,7.87-.06,10.64.22,3.6,4.17,5.98,1.83,9.65l-.15.14Z"/>
        <path class="st3" d="M976.01,702.64c-1.19,1.16-2.82-1.57-3.55-1.99-3.47-2.97-9.14-2.18-12.04,1.18-3.27,3.35-4.33,7.81-6.74,11.59-2.04,2.98-4.85,4.71-7.12,7.31-1.48,1.81-1.25,5.01-1.29,7.43-.13,3.67,0,5.95,1.5,8.76,1.01,2.1,2.16,4.22,3.97,5.74.45.43.92,1.4.75,1.82-.14.57-1.03.19-1.52.04-2.31-.83-4.49-2.34-5.39-4.78-.26-.58-.54-1.15-.9-1.67-1.77-2.57-3.9-3.64-5.15-5.56-1.36-3.41-.42-8.08,2.35-10.91,3.59-3.75,6.78-6.86,10.3-10.46,2.66-3.81,3.48-8.89,5.29-12.98,1.45-3.67.41-8.5,3.95-11.13,4.47-4.91,13.39-3.86,14.17,3.62.9,3.57,3.44,7.78,1.55,11.78l-.14.2Z"/>
        <path class="st7" d="M978.73,749.72c.79.25.51,1.54.58,3.86.01,1.79.03,4.1.04,6.6-.02,8.9.29,15.03-.05,22.6-.02,1.07.3,2.13.81,2.8.71.96,1.67,1.59,1.68,2.93.03,3.18-.11,11.69-.14,16.24.15,4.44-1.42,3.72-2.89.35-.66-1.41-1.68-2.39-2.03-4.02-.4-5.33.26-10.77-.12-16.18-.1-1.31-.78-2.7-1.47-3.55-.9-1.18-.67-2.08-.73-3.87-.05-4.9-.1-10.52-.15-15.5.06-3.87-.44-4.96.9-6.89,1.22-1.55,1.4-4.83,3.41-5.39l.16.03Z"/>
        <path class="st1" d="M944.99,716.57c.37,1.58-1.86,2.58-2.99,3.91-1.06,1.2-2.44,2.18-3.23,3.66-1.15,2.85-.9,5.31-.43,7.96.25.76.73.81,1.39,1.25,1.03.74,2.19,2.23,3.19,3.21,2.55,1.89,3.13,4.06-1.04,3.95-2.54.32-3.41-1.11-5.06-2.27-1.66-.74-4.61.12-5.72-1.17-1.03-.98-2.39-2.06-2.84-3.54-.29-1.43-.17-3.19-.21-4.8-.49-4.33,1.71-7.48,5.95-8.28,1.36-.62,2.13-1.96,3.8-2.07,1.55-.07,2.36-.94,3.36-1.77.91-.72,2.96-.88,3.65-.25l.17.19Z"/>
        <path class="st3" d="M981.77,745.18c0,.36.22,1.4-.14,2-.36.68-1.3.73-1.78,1.05-.61.27-.32,1.6-.97,1.62-.63-.02-1.52.16-1.95-.15-.28-.41-.31-1.65.21-1.87.39-.22,1.1-.24,1.52-.65.58-.51.43-1.44.92-1.8.47-.42,1.65-.3,2.06-.3l.14.11Z"/>
        <path class="st7" d="M947.51,713.21c.02.15.1.3.1.45,0,.58.23,1.37-.13,1.95-.45.74-1.55.33-2.26.44-.04-.69-.27-1.63.19-2.37.35-.55,1.43-.45,2.09-.47Z"/>
        <path class="st3" d="M973.45,757.49c.54.1.78,1.18.78,2.87.12,5.28,0,15.29.3,18.71.29,1.66,1.23,2.82,1.67,4.46.71,3.69.92,9.21-.11,13.15-.51,1.12-1.12.26-1.63-1.47-.53-1.69-1.03-3.68-2.16-4.9-1.53-1.92-3.61-3.43-6.06-3.91-2.64-.39-5,.63-5.87,3.02-.46.88-1.13,1.84-1.64,2.74-2.76,4.2-1.58,11.05-1.61,15.51.3,2.18,1.57,4.03,2.13,6.15.45,2.18,1.03,4.25,2.91,5.59,2.17,2.29,5.49,3.53,8.13,5.08,2.3.83,4.95,1.56,7.19,2.63,1.13.48,2.68.73,4.88.7,3.98.08,7.11.17,10.49-1.68,3.14-1.07,6.84-2.01,8.83-4.79,1.96-2.13,2.64-4.95,1.17-7.4-.74-1.5-2.65-2.88-2.72-4.51-.04-2.1,1.94-5.58,3.91-7.26,2.87-1.7,8.67-2.1,10.93-.18.7.71,1.02,1.66,1.3,2.62.48,2.25,2.09,4.66,1.69,6.95-1.51,4.39-2.35,9.74-6.85,12.32-5.88,3.97-12.53,5.51-19.24,6.67-2.44.5-3.93,1.62-6.04,1.86-2.52.14-4.11-1.38-6.6-1.9-4.72-.41-8.49-1.8-13.03-3.31-6.56-3.59-10.89-9.77-11.5-17.59-.12-2.75-2.22-4.45-2.25-7.24.05-1.96,1.19-3.64,1.87-5.37.29-1.37.09-4.31.16-8.26.21-12.06-.26-30.3.3-36.2.44-.99,1.24.18,2.34,1.93,2.83,6.53,10.97,4.91,16.16,2.98l.16.02Z"/>
        <path class="st3" d="M989.11,739.89c-.4-1.42,1.82-2.41,1.94-4.17.21-2.02,1.95-2.83,2.43-4.57.23-1.09-.3-2.13-1.05-2.93-.66-.71-1.08-1.62-1.38-2.65-.54-2.41-2.83-3.91-4.08-5.45-1.34-1.79,1.86-2.2,3.04-1.4,1.27.73,2.26,1.95,4.13,1.9,2.04.16,4.25-.43,6.01.55.45.37,1.01.82,1.44,1.23.86.83,2.24.71,3.23,1.2,2.35,1.35,4.45,4.2,3.71,7.17-.21,1.88-1.25,2.1-2.39,3.31-.87,1.23-3.11,1.33-4.49,1.87-1.23.75-.38,1.62-1.97,1.85-2.5.47-5.36-.09-7.93.88-.97.68-1.74,1.95-2.49,1.38l-.16-.16Z"/>
      </g>
      <g>
        <path class="st4" d="M732.37,780.63c.55-1.73,2.76-3.07,3.49-4.86,1.44-3.81,1.04-9.48.02-13.33-.69-2.17,1.87-2.48,3.56-2.67,7.82.06,16.31-.95,24.05.54,3.56,1.66,1.85,6.41,3.11,9.42,1.07,4.04,6.05,4.44,9.49,5.76,8.93,2.98,17.34.87,19.59-9.03.69-2.2.71-3.78,0-6.02-1.04-5.73-3.15-11.82-6.21-16.62-1.45-3.06-2.88-6.23-5.4-8.45-5.9-4.3-11.76-8.22-19.21-9.34-6.61-1.3-6.66,3.7-5.9,8.75.5,2.94,3.44,3.37,5.39,5.07,2.19,1.79,4.83,5.91,2.44,6.66-2.47-.15-4.22-3.94-6.5-4.84-3.61-1.4-7.4-3.52-11.34-3.07-3.88,1.22-8.77,1.92-11.55,4.84-.74.82-1.56,1.67-2.42,2.36-2.6,2.2-2.93-.92-1.71-2.61,1.36-2.52,4.13-4.06,5.08-6.82,1.1-2.65.93-5.45-.55-7.96-.96-1.68-2.96-1.57-4.66-1.1-9.1,1.95-15.01,8.32-21.29,14.81-3.93,3.43-5.47,8.14-7.73,12.62-.7,1.93-1.89,3.3-2.56,5.13-.83,2.1-1.18,4.46-1.67,6.64-1.9,4.97-2.18,10.43-1.75,16.12,1.6,7.08,3.44,13.88,5.96,20.48,2.25,4.47,5.25,8.8,8.13,12.82,1.55,1.4,3.84,2.34,5.45,3.46,1.47,1.05,2.25,2.24,4.18,2.73,4.55,1.49,11.12,4.97,13.82-.88,1.47-3.19,1.16-7.11-1.37-9.44-3.32-3.24-8.34-8.38-9.15-13.58-.23-1.07-.13-3.11.98-3.45.93-.03,1.84,1.65,2.26,2.61,2.58,7.23,8.43,12.77,15.76,14.77,3.3.67,7.28.28,10.98.4,9,.11,13.91-7.15,19.82-12.44,7.21-5.8,23.46-6.74,24.79,5.03.46,2.59-.34,4.75-1.72,6.8-1.5,2.27-2.56,6.51-4.61,8.76-3.31,2.47-6.91,4.31-10.37,6.82-1.88,1-3.99,1.59-5.7,2.84-3.58,1.81-7.12,2.8-11.08,4.75-6.39.43-17,0-23.98.14-4.05.51-5.39-1.6-8.66-2.56-7.78-1.61-13.82-3.83-19.65-9.77-2.45-2.57-4.98-5.11-7.6-7.44-6.6-6.95-9.21-17.44-11.34-26.82-.69-2.36-1.81-3.1-2.21-5.84-.2-1.34-.17-3.13-.18-4.99,0-1.85-.05-3.65.13-4.99.35-2.77,1.5-3.43,2.19-5.73,1.99-9.1,3.77-17.91,11.03-24.26,3.56-3.53,4.78-7.36,8.78-11,2.3-2.13,4.65-4.73,6.84-6.87,2.5-2.36,5.58-2.84,8.45-4.6,2.3-1.4,6.41-1.77,9.44-2.56,2.4-.64,3.25-1.53,6.06-1.74,3.89.05,9.89-.46,13.96.44,3.62,1.68,8.87,1.99,12.75,3.59,2.49,1.2,4.54,3.02,6.87,4.51,2.57,1.48,5.27,2.82,7.17,5.17,2.41,2,3.63,4.79,5.27,7.46,4.85,6.83,7.9,14.61,9.14,23.06.63,2.33,2.05,4.61,1.84,7.18-.9,4.06-2.36,8.08-4.42,11.62-3.01,2.26-7.02,3.22-10.43,4.62-2.22.46-4.78-1.15-7.02-1.69-1.89-.64-4.02-.34-5.82-.33-10.17-.02-24.09-.1-35.4-.14-4.31-.11-7.14.33-7.14-.83v-.15ZM776.4,822.87c1.59-.59,5.26.41,6.47-1.42.35-.35.82-.69,1.26-.91.99-.34,2.51-.32,3.05-.96.52-.5.66-1.07,1.32-1.52.95-.84,1.73-1.89,1.67-3.24,0-2.26.49-5.41-1.31-6.92-1.28-1.47-2.63-2.33-4.88-2.22-2.11-.06-4.31-.06-6.41.14-1.5.21-2.05,1.39-3.03,2.1-.92.57-1.46,1.76-2.46,2.3-1.16.45-2.88.28-3.73,1.5-.77.94-1.81,1.59-2.23,2.69-.34,1-.31,2.37-.33,3.64.02,1.84,0,3.54,1.46,4.71.54.55,1.11,1.21,1.9,1.7,1.31.95,5.57,1.03,6.31-.4.19-.43.13-.82.67-1.08l.25-.1Z"/>
        <path d="M731.33,747.96c.86,1.3.61,2.65-.08,4.12-1.3,2.42-1.86,6.24,1.1,7.63.92.55,1.78,1.03,2.03,2.25.33,1.86.23,5.2-.1,7.21-.4,2.04-1.64,3.48-2.1,5.47-.88,3.51-2.22,6.45-3.53,9.29-.65,1.06-1.88,1.79-2.61,2.84-3.11,4.97.8,12.12-2.9,16.94-2.24,2.96-6.1,5.67-9.74,3.58-6.72-3.86-7.24-11.74-10.27-17.98-.4-4.19-.05-12.79-.17-17.96,0-1.36,0-2.21.42-3.24,1.42-2.2,2.22-5.95,3.2-8.62.78-2.07,2.08-3.79,2.87-5.91,1.96-4.08,4.9-8.51,10.11-8.61,3.79-.07,9.13-.53,11.58,2.7l.18.29Z"/>
        <path class="st3" d="M727.48,786.48c.27,1.97.3,4.89-.13,6.82-.2.27-.77.13-1.15.16-.38-.05-.96.06-1.14-.2-.23-1.97-.77-4.71-.03-6.69.48-.55,1.61-.25,2.33-.25l.13.15Z"/>
        <path class="st3" d="M731.46,781.57c-1.28.66-2.58-.81-1.63-1.95.48-.51,1.52-.6,1.86-1.38.75-1.59-.03-3.95.4-5.57.25-.89,1.3-.89,2.03-1.2.22-.13.3-.35.32-.7.11-1.37-.03-7.41.29-8.58.48-.3,1.27-.12,1.72.05.56.23.29.89.36,2.15-.03,2.68.09,10.24-.02,11.69-.43.53-1.04.54-1.67,1.08-.53.48-.8,1.21-1.42,1.55-.47.29-1.07.39-1.41.72-.55.46-.3,1.59-.6,1.96l-.22.18Z"/>
        <path class="st3" d="M731,745.76c-.6.38-1.52.04-2.76-.4-13.76-3.43-16.67,2.84-21.66,13.96-.93,2.8-1.86,6.23-2.81,7.95-.67,1.35-.82,2.31-.82,4.1.1,4.79-.2,12.6.15,17.67,1.11,2.99,2.34,5.98,3.48,10.02,1.91,4.19,5.94,10.7,11.62,8.89,1.32-.49,2.48-1.35,3.53-2.34,1.48-1.36,3.56-4.6,5.27-2.13,2.09,4.22,6.56,7.36,9.03,11,1.55,3.23.73,8.64-2.75,10.48-2.97,1.6-6.2-.58-9.26-1.38-1.37-.48-3.38-.85-4.26-1.72-.58-.52-1.06-1.22-1.9-1.79-1.54-1-3.49-1.92-5.08-2.91-2.09-1.64-2.79-4.64-4.52-6.79-3.55-4.12-4.92-9.33-6.66-14.15-1.14-2.27-1.08-5.06-1.72-7.47-.58-2.21-1.56-3.33-1.73-5.81-.06-2.95-.15-7.65.11-10.76.33-2.31,1.3-3.5,1.8-5.7.44-1.86.39-4.06,1.16-5.86.93-2.46,2.67-5.11,3.61-7.6,2.04-3.75,3.11-7.94,6.5-10.81,3.86-3.67,6.91-7.41,11.24-10.98,3.94-2.47,8.96-4.85,13.77-5.08,2.64,1.18,3.22,5.02,2.81,7.63-.42,4.02-4.21,6-6.11,9.18-.57.89-1.07,2.05-1.85,2.69l-.18.12Z"/>
        <path class="st3" d="M766.4,760.89c.4-.3.81.08,1.35.78,1.81,2.37,2.37,6.2,5.16,7.7,4.68,2.85,18.16,4.85,19.82-2.35.68-4.02.83-8.93-1.15-12.56-1.97-3.26-3.17-7.57-5.99-10.35-3.65-2.48-13.43-2.61-14.6,3.04-.35,1.08-.53,2.51-.94,3.48-1.31,2.5-2.12-1.47-2.02-2.74.03-2.21-.35-4.04-1.97-5.89-1.07-1.33-2.33-2.55-3.54-3.33-1.85-1.23-3.77-.81-4.27-3.2-.2-2.64-.7-6.52.43-8.82,2.47-1.71,6.91-.9,9.59.21,2.49,1.2,6.5,1.42,8.59,3.57,2.09,1.99,4.76,2.83,7.05,4.58,2.25,1.73,3.35,4,4.69,6.51,2.28,4.82,5.07,8.48,6.5,13.98.38,1.41.33,3.09.65,4.43.42,1.79,1.6,2.62.99,4.41-2.59,9.63-5.6,13.16-16.36,12.33-1.7-.05-3.3-.59-4.82-1.26-2.35-1.21-5.87-1.14-7.92-2.9-2.39-2.2-2.92-8.19-1.37-11.49l.14-.13Z"/>
        <path class="st3" d="M776.15,822.97c-.55.26-.48.65-.67,1.08-1.03,1.53-4.9,1.28-6.31.4-1.25-.96-2.37-1.87-3.02-3.24-.47-1.69-.36-4.1-.2-6,.16-1.55,1.44-2.37,2.42-3.5.79-1.14,2.4-1.08,3.73-1.5,1.71-1.3,2.86-3.07,4.7-4.18,2.95-.62,6.49-.55,9.47-.1,2.1.96,4,2.77,3.95,5.38-.06,1.79.33,4.1-.61,5.63-.86.84-1.73,1.72-2.4,2.63-.56.62-2.09.66-3.05.96-1.24.49-1.77,1.96-3.37,2.03-1.48.11-3.43-.06-4.36.29l-.25.1Z"/>
        <path d="M768.86,760.22c2.03-1.67,1.78-4.28,1.71-6.75-.32-7.55,1.12-11.65,9.6-10.88,4.29-.42,6.91,2,7.96,5.83.58,1.33,1.7,2.3,2.01,3.76.26,1.54,1.13,2.38,1.9,3.48,1.41,3.29.52,7.59.63,11.11-1.12,6.38-8.92,4.92-13.8,4.95-2.54-.02-3.62-1.95-5.93-2.33-.56-.17-1.25-.34-1.6-.83-.68-.92-.64-2.56-1.46-3.58-.94-1.2-2.13-3.21-1.2-4.49l.18-.27Z"/>
      </g>
      <g>
        <path class="st4" d="M1074.13,780.55c1.9-3.7,5.25-6.02,6.17-11.29.48-1.81.36-3.79-.18-5.52-.23-1.06-.82-2.26-.06-3,.68-.55,2.07-.69,3.12-.77,6.22-.05,12.81-.2,19.09-.19,7.03-.6,4.48,6.22,6.13,10.1,1.48,2.68,4.28,3.05,7.24,3.94,3.36.4,6.64,2.08,9.98,1.88,3.55-.94,7.9-1.78,10.49-4.45,3.33-3,3.43-7.78,3.31-12.04.16-6.27-3.08-10.04-5.43-14.97-2.9-7.13-8.84-13.66-16.42-15.65-3.42-.93-5.38-2.84-9.02-2.79-4.63,0-10.37,0-15.49,0-8.97.26-15.49-.52-20.57.36-4.74,2.19-10.48,3.2-14.74,6.9-4.72,3.94-7.43,9.5-10.05,15.05-2.97,4.99-3.35,11.08-5.42,16.68-.52,2.27-.41,5.4-1.05,7.6-.49,1.91-1.15,3.88-.67,5.74,1.5,4.32.98,9.63,2.8,13.96,1.14,4.55,2.08,9.42,4.67,13.62,2.26,4.23,3.83,8.56,7.28,12.03,5.09,4.05,12.04,6,18.48,7.1,4.6.04,7.44-3.82,6.84-8.08-.86-5.15-5.64-8.12-8.91-11.77-1.9-1.6-3.23-4.68-2.27-6.95.24-.57.52-.8.85-.7,1.23.52,1.69,2.19,2.57,3.37,1.98,2.51,4.49,4.54,7.35,7.27,3.53,2.59,5.7,4.18,9.77,4.5,3.98-.08,10.05.58,14.12-.56,12.28-4.66,19.26-23.65,34.69-14.77,2.12,1.21,2.76,4.33,3.69,6.51,2.22,6.99-3.37,12.75-6.33,18.53-.87,1.65-2.58,2.44-4.18,3.26-3.06,1.58-6.07,4.21-9.17,5.57-2.57,1.13-5.77,1.18-8.42,2.12-1.93.71-2.36,1.72-4.26,2.01-4.38.21-17.69.02-24.33.07-4.36.3-4.54-1.6-8.27-2.56-6.46-.69-11.76-4.39-17.58-6.88-6.47-3.88-13.21-10.74-16.89-17.33-3.09-6.65-3.58-13.51-5.89-20.29-.22-.99-.32-2.11-.33-3.16.25-4.15-1.69-6.23-2.02-9.48,1.65-7.56,3.37-15.03,6.29-22.44.84-2.74.62-5.81,2.07-8.33,2.69-4.03,5.66-9.51,8.76-13.63,2.59-2.71,6.4-3.76,9.32-6.25,5.59-4.02,12.33-5.49,19.05-6.74,2.94-.54,3.73-1.69,6.82-2,3.21-.14,8.53-.18,12.09-.01,1.42.13,2.54.52,3.79,1.03,2.13,1.03,6.33,1.42,9.3,2.32,6.65,2.58,12.11,6.8,18.1,10.58,2.42,1.82,3.88,4.72,5.38,7.17,1.8,2.76,3.9,5.04,5.15,8.13,3.26,5.3,3.55,11.71,5.48,17.54.57,4.3-1.51,8.37-2.92,12.05-.65,1.49-1.53,2.94-2.75,4.01-3.02,2.79-8.08,2.73-11.83,2.77-5.66-.01-33.62-.1-47.83-.15-4.26-.14-6.99.41-6.97-.86l.02-.15ZM1121.55,824.44c.33-.36.72-.79,1.05-1.15.84-.82,2.28-.56,3.28-1.06.95-.43,1.58-1.29,2.59-1.66.89-.33,1.99-.46,2.67-1.02,1.2-1.34,3.13-1.82,3.08-3.69-.07-2.53.13-7.43-.18-9-.15-.37-.4-.75-.69-1.03-1.38-1.29-2.36-2.68-4.65-2.61-1.62,0-3.28-.13-4.85.2-1.6.49-2.55,2.07-4.3,2.27-3.13.72-4.78,4.22-7.13,6.26-1.23,1.41-3.96.54-4.62,2.43-.41,2.39-.87,6.33.92,8.19.86.92,1.9,1.77,3.09,2.2,2.54.53,7.35.6,9.5-.14l.25-.18Z"/>
        <path d="M1075.51,743.54c1.11,2,.94,4.88-.27,6.56-.95,1.41-1.64,3.66-1.47,5.62-.25,3.62,3.76,3.67,4.64,6.47.24.97-.06,2.08-.38,3.03-1.33,3.03-1.97,6.87-3.42,9.8-1.03,2.2-.66,5.27-2.33,6.94-5.75,5.13-2,14.04-3.5,20.82-.94,3.02-2.01,6.52-5.27,7.6-2.24.48-4.72.28-6.64-1.09-4.95-3.53-6.72-9.59-9.46-14.67-.73-2.41-1.11-4.77-2.36-6.58-1.3-4.76-.23-13.16-.54-17.88.04-2.23.94-2.85,1.62-4.59.4-.84.75-2.82.76-3.4.21-1.94.07-3.93,1.45-5.21.83-1.19,1.61-3.59,2.45-5.15,1.82-2.96,3.05-6.7,5.12-9.56,6.42-5,14.23-6.97,19.43.95l.17.33Z"/>
        <path class="st3" d="M1134.33,746.33c-1.12.67-2.54-1.06-3.47-1.9-1.7-1.88-3.75-3.57-6.34-3.96-5.49-.85-10.78.37-11.37,5.74-.21.83-.71,3.08-1.65,2.56-1.09-1.09-.86-3.73-1.82-5.17-3.07-5.57-8-6.31-14.14-5.6-4.29.49-8.82-.74-12.98.44-2.13.71-3.82,2.91-5.71,3.37-2.85.78-4.64-2.38-7.1-3.25-4.92-1.96-10.46,1.03-14.01,3.81-2.91,4.11-5.27,10.11-7.59,14.44-.67.91-1.08,1.46-1.27,2.79-.28,1.8-.29,3.93-1.09,5.92-.64,1.75-1.46,2.56-1.58,4.75.1,4.36-.4,12.32.25,16.85,1.9,4.11,2.78,8.85,5.37,12.7,1.55,3.62,3.69,7.48,7.22,9.6,3,1.93,7.97,1.38,9.58-1.81.9-1.58,1.93-3.24,3.16-3.32,1.91-.05,3.14,2.06,4.46,3.2,1.81,1.95,3.93,3.73,5.42,5.9,1.97,2.83,1.64,8.04-1.08,10.14-1.91,1.5-5.22,1.94-7.71,1.05-5.15-1.99-11.03-2.73-15.36-6.45-3.83-3.61-5.59-8.49-7.98-13.15-1.54-3-3.22-5.6-3.43-9.43-.21-2.68-1.57-4.38-2.17-7.11-.45-2-.15-5.05-.64-7.01-.34-1.7-1.09-2.96-1.24-4.2-.25-1.41.5-2.81,1.04-4.7.75-2.13.35-6.14,1.01-8.34.4-1.59,1.36-2.84,1.74-4.46.44-5.35,2.81-10.45,5.42-15.08,1.4-2.6,2.9-5.82,4.79-8.05,4.04-5.07,9.58-7.58,15.74-9.28,1.76-.58,2.43-1.67,4.54-1.58,9.69-.02,26.93,0,34.74,0,2.33-.21,3.18.51,5.36,1.55,7.36,1.8,14.78,6.15,18.32,13.17.88,1.54,2.43,4.12,1.7,5.76l-.13.13Z"/>
        <path d="M1134.15,748.01c.55.93.78,2.6,1.58,3.86.39.67.81,1.41,1.07,2.14.4,1.13.24,2.82.76,3.95.38,1.01,1.12,1.92,1.29,2.61.18.7-.3,1.33-.67,1.97-1,1.43-1.13,3.16-1.06,4.9.2,5.48-3.76,4.39-7.65,4.81-1.7.42-2.83,2.02-3.92,1.55-1.44-.64-2.69-1.67-4.36-1.7-4-.06-6.63-3.08-8.54-6.11-.74-2.4-2.74-4.35-3.14-6.77.02-1.58,1.33-2.79,1.77-4.4.33-1.08.32-2.44.41-3.71-.12-10.52,3.05-12.14,13.06-11.01,3.4.7,5.56,4.83,8.11,6.52.4.33.82.7,1.1,1.13l.17.26Z"/>
        <path class="st3" d="M1121.3,824.63c-1.05.62-3.29.36-5.23.5-3.82.39-8.31-1.33-8.56-5.63.2-2.12-.87-5.83,1.91-6.4,3.83-.25,5.56-4.77,8.35-6.71,1.07-.79,2.6-.63,3.66-1.47.79-.54,1.44-1.23,2.41-1.49,1.42-.34,3.23-.19,4.85-.2,2.03-.05,2.99,1,4.17,2.15.78.73,1.37,1.19,1.32,2.72,0,2.04.04,5.51.03,7.78,0,1.93-1.44,1.92-2.5,3.21-1.39,1.39-3.8,1.24-5.17,2.77-1.22,1.01-3.16.45-4.17,1.67-.29.31-.21.31-.83.92l-.25.18Z"/>
        <path class="st3" d="M1109.46,760c.66.74,1.59,1.7,2.33,2.47.87,1.22.57,3.77,2.07,4.67,1.94,1.59,3.36,4.59,6.15,4.62,1.57-.02,3.37-.15,4.27.8.74.94,2.04,1.53,2.63,2.47.42,1.37-1.27,1.85-2.67,1.63-1.55-.11-2.08-1.69-3.4-2.18-2.31-.86-6.69.81-8.21-1.26-.38-.45-.75-.99-1.32-1.22-1.99-.72-4.25.64-3.85-2.86-.02-2.31-.12-6.03-.12-8.38-.02-1.04,1.01-1.36,1.85-.93l.26.17Z"/>
        <path class="st3" d="M1073.93,778.7c-.37-1.09-.89-4.26,1.08-4.56.49-.2.85-.58,1.05-1.06.38-1.72-.34-4.12.43-5.58.49-.74,1.72-.94,1.91-2.04.44-1.21-.47-3.67,1.31-3.55,2.02.53,1.31,6.31.98,8.8-.33.97-1.39,1.05-1.94,1.89-.44.99-.09,2.57-.47,3.22-.26.65-1.09.84-1.65,1.41-.63.76-1.37,2.22-2.51,1.66l-.19-.19Z"/>
        <path class="st3" d="M1138.89,759.66c-4.69.78-.15-6.97-3.75-7.49-1.01-.63-.89-1.81-.9-2.89.03-.62-.13-1.35.26-1.61.33-.29,1.2-.14,1.58.08,1.06.8.19,2.82.7,3.85.2.67,1.06.66,1.67.95.75.37.69,1.63.8,2.42.07,1.34.08,3.4-.18,4.53l-.18.17Z"/>
        <path class="st3" d="M1138.86,762.16c.19,2.1.83,5.14-.31,7.04-.44.25-1.53.34-1.74.11-.21-1.56-.19-3.59-.18-5.28.07-.6.02-1.4.44-1.72.39-.3,1.43-.23,1.67-.28l.13.13Z"/>
        <path class="st3" d="M1134.17,772.09c.22,1.17.3,2.3-1.28,2.06-1.57,0-5.07,0-5.66,0-.18-.01-.15-.33-.19-.86-.21-2.76,5.4-1.23,6.97-1.34l.16.14Z"/>
        <path class="st7" d="M1088.16,738.3c.13.38.21,1.87-.26,2.04-.54.18-2.71.07-3.63.13-.76-.03-.47,1.18-1.22,1.73-.7.51-1.37.98-1.8,1.75-.79,1.49-2.43,1.13-2.57,3.11-.3.84-1.68,1.26-2.25.89-.65-.64-.23-3.89-.24-4.72.11-.56,1.15-.32,1.63-.8.42-.4.65-1.09,1.01-1.61.86-.96,1.99-2.08,2.89-2.82,1.68-.65,4.72-.07,6.29.13l.17.16Z"/>
        <path class="st7" d="M1109.57,747.94c-1.4.47-1.9-1.18-2.56-2.16-.53-.68-2.15-1.61-1.98-1.59-.85-.7.44-.28-.21-.68-.35-.25-.36-.11-1.41-.94-.58-.52-.67-1.29-1.17-1.71-1.66-.97-4.15-.13-6-.45-1.1-.1-1.51-1.79-.51-2.27,2.31-.49,6.16-.56,8.5-.2.69.19.81.84,1.49,1.74.66.87,1.66,1.88,2.53,2.52,1.24.81,1.81.8,1.85,2.21.07,1.24.18,2.8-.3,3.38l-.24.16Z"/>
      </g>
    </g>
  </g>
  <g>
    <path class="st1" d="M205.61,834.77c-.67.55-1.74.84-3.58.81-3.79,0-10.48.04-14.02.03-3.11,0-3.17-1.45-5.57-2.34-2.56-.83-5.99-.82-8.44-2.09-3.89-2-8.31-3.94-12.2-5.93-1.69-.76-2.98-1.93-4.16-3.39-3.34-3.83-8.15-8.24-12.12-11.97-1.63-1.67-2.43-3.87-3.46-5.87-1.65-3.64-4-5.89-3.91-10.36-.04-.98-.17-2.08-.48-2.95-.68-2.05-1.96-2.47-2.05-4.74-.05-3.9.02-13.31.03-17.89-.08-3.12,1.39-3.5,2.22-5.91.57-1.49.29-3.8.75-5.32,1.02-3.61,2.86-6.44,4.64-9.64,1.58-3.41,3.24-6.82,5.66-9.69,1.58-2.87,2.71-5.76,5.28-7.9,1.88-1.92,4.72-2.16,6.76-3.97,2.24-2.14,4.82-3.38,7.62-4.53,2.25-1.37,4.03-2.42,7.25-2.89,3.84.08,5.9-1.67,9.83-2.43,1.05-.14,2.22-.2,3.24-.44,2.28-.47,3.62-1.97,5.19-1.97,1.47.01,3.14,1.4,5.12,1.88,1.7.47,4.01.43,5.41,1.01,3.71,2.14,8.61,1.22,12.3,3.39,3.73,2.07,8.14,3.71,11.42,6.87,3.02,1.33,6.35,3.03,8.25,6.03,1.6,3.2,3.48,6.11,5.54,9.13,1,1.44,1.65,3.26,2.46,4.91.85,1.36,1.72,2.67,2.24,4.15.87,3.92,2.98,7.23,3.16,11.59.02.67.08,1.46.22,2.08.53,2.35,2.05,2.8,2.21,5.77-.04,3.93.44,10.46-.13,14.1-.42,1.59-1.41,2.51-1.91,4.23-.61,1.86-.15,4.41-.84,6.03-.4,1.16-1.02,2.18-1.4,3.36-.72,3.99-2.58,7.19-4.72,10.53-3.53,4.55-5.79,10.37-10.72,13.73-4.5,1.59-8.16,5.73-12.61,7.18-1.34.56-2.44,1.46-3.77,1.96-2.91,1.66-8.08.67-10.51,3.29l-.18.15ZM231.04,816.39c1.82-2.17,4.39-4.04,5.83-6.52,1.55-2.17,2.51-5.18,3.89-7.72,1.38-3.82,3.98-6.39,4.17-10.48.06-3.98,2.29-6.34,2.46-9.99,0-5.72.63-11.54-1.91-16.78-.6-6.18-2.58-10-4.38-16.24-3.14-7.08-7.44-13.16-13.74-17.77-4.25-2.69-8.92-4.44-13.31-6.87-4.64-1.56-8.78-3.75-13.85-4.36-2.69-.27-4.86-2.16-7.62-1.28-2.82,1.25-6.4,1.38-9.26,2.31-3.2,1.69-7.05,1.56-10.33,2.73-3.95,1.85-7.41,3.32-11.04,5.88-3.25,2.97-5.93,6.01-8.93,9.04-4.42,5.2-6.48,12.17-8.59,18.24-1.37,2.51-1.15,5.91-1.86,8.5-.6,2.09-1.52,2.63-1.76,4.91-.14,1.52-.07,3.74-.1,6.16,0,2.41-.06,4.85,0,6.56.12,2.96,1.36,3.47,2.03,5.86.64,2.41.38,5.37,1.53,7.62,1.71,3.32,3.62,7.46,5.36,10.99,3.17,6.52,8.84,11.23,15.55,13.87,2.07,1.11,3.11,1.9,5.35,2.36,3.28.8,6,2.33,9.8,2.54,1.95.21,3.68.99,5.43,1.71,2.46,1.17,6.67.39,9.22,1.4,3.19,1.35,6.03-.59,9.44-.62,2.3.06,4.55-.3,6.63-1.26,3.19-1.37,7.04-2.08,9.99-4,3.6-1.63,7.44-3.31,9.76-6.52l.26-.27Z"/>
    <path class="st3" d="M241.9,753.11c-.49.36-1.39.02-2.1-.9-1.59-2.13-2.79-4.79-4.68-6.82-2.69-2.97-5.47-5.9-8.43-5.35-3.48.3-5.66,3.45-5.67,6.83.02,3.87,2.37,6.96,2.32,10.84-.09,1.99-.7,3.44-1.34,2.75-1.39-1.81-1.81-4.99-2.77-7.07-2.19-4.82-6.68-9.31-11.12-12.62-1.05-.62-2.22-.86-3.37-1.17-2.38-.54-3.58-1.65-6.4-2.18-5.07-.91-9.09.82-13.46,2.56-2.96.91-5.19,2.61-5.4-2.23-.2-2.16-.01-4.1-1.76-4.9-4.85-1.42-11.11.19-14.5,2.58-3.04,2.09-5.71,5.59-8.31,8.1-5.59,8.23-9.51,18.14-10.02,28.05-.5,2.45-1.58,3.96-1.21,5.78.27,1.61.96,3.1,1.27,4.73.89,8.78,4.26,27.33,16.02,26.4,5.67-.55,5.96-4.42,6.76-9.13.53-2.15,1.25-1.46,2.18-.08,1.49,2.91,2.71,5.91,4.89,8.46,2.22,2.44,5.83,4.35,8.37,5.38,4.2,1.18,9.11.29,14.12.55,5.48.4,9.15-2,13.18-5.39,2.59-3.3,4.6-6.9,6.98-10.32,1.35-2.97,2.17-6.24,3.15-9.35,1.08-3.79,2.76-5.27,2.81-8.86.45-2.09-1.03-18.47,1.55-17.09,1.23,1.5.78,5.25.86,7.79-.02,4.35.04,9.55-.05,12.45-1.36,5.87-4.41,12.32-6.1,18.1-1.04,2.47-1.18,5.5-1.09,8.41.09,2.08-.26,4.47,1.31,5.88,2.06,1.47,6.56.29,8.57,1.39,3.44,2.36-4.76,5.29-6.52,6.22-4.45,2.43-9.41,4.02-14.27,5.4-3.21.12-6.58.82-9.73,1.29-1.98.14-4.46-1.15-7.67-1.07-.86-.04-1.83-.08-2.64-.27-4.18-1.56-8.69-2.28-13.12-3.46-4.87-1.23-8.35-3.06-12.98-5.29-2.59-1.3-5-2.76-7.06-5.2-5.26-5.44-7.68-12.47-10.86-19.16-.71-1.98-.66-4.71-1.33-6.82-.66-2.12-1.66-2.92-1.86-5.67-.05-3.49-.13-9.08.11-12.56.29-2.26,1.12-3,1.7-5.1.77-5.63,2.65-10.68,4.54-16.24,2.18-3.96,3.61-8.33,7.11-11.56,4.24-4.39,8.47-9.48,14.37-11.54,3.22-2.16,7.2-3.07,11.24-3.71,4.72-1.6,9.86-2.87,14.8-3.77,3.24.61,6.99,1.62,10.4,2.36,4.98,1.67,10.09,3.68,14.91,6.08,3.21,1.82,6.49,2.97,9.43,5.32,1.92,1.52,3.83,3.91,5.63,5.58,3.39,3.82,5.37,7.98,7.27,12.72.2.82.56,2.11.09,2.77l-.13.12Z"/>
    <path class="st2" d="M242.4,755.27c5.02,4.13,2.55,12.14,3.12,17.73.27,2.45,1.71,3.78,1.25,5.45-2.59,5.19,0,11.65-2.47,17.17-4.62,6.69-6.22,18.12-15.6,19.88-12.06.45-10.91.53-10.74-11.14.36-3.15,2.2-5.7,2.82-8.85,1.54-3.56,2.4-7.38,4.31-10.75.58-4.38.1-13.6.25-19.44-.01-3.43-2.69-4.3-2.5-7.84-.03-4.53-4.09-8.56-1.93-13.41.9-2.62,4-4.01,6.56-3.82,2.84.08,5.8,3.91,8.22,6.25,2.4,2.93,3.41,6.21,6.47,8.54l.24.23Z"/>
    <path class="st3" d="M247.17,776.54c-.29,0-1.58.34-1.93-.19-.9-2.75,0-5.97-.06-8.8.29-.78,1.38-.76,2.01-.21.58,2.77.16,6.22.09,9.06l-.11.15Z"/>
    <path class="st3" d="M247.32,779.02c0,1.95.39,4.73-.06,6.72-.39.58-1.62.68-2.01.45-.29-1.97-.73-4.67-.08-6.72.23-.68,1.64-.5,2.02-.57l.13.12Z"/>
    <path d="M179.64,742.85c-.73,2.67-3.49,4.19-5.18,6.26-3.04,4.71-5.58,9.84-7.18,15.24-.53,1.98-1.96,3.23-2.09,5.26-.06,3.92-.14,12.53.01,16.76.87,3.07,2.81,5.3,2.47,8.85.04,3.14.32,8.41-1.42,10.54-1.94,2.23-6.22,2.98-9.36,1.84-7.51-3.53-8.87-12.26-11.27-19.1-.44-2.07-.06-5.15-.64-7.09-.44-1.8-1.53-3.34-1.55-4.74-.05-1.63,1.21-2.83,1.57-4.84.41-1.9.12-5.22.54-7.18,1.63-4.33,2.78-9.13,5.07-12.98,1.3-2.56,2.53-5.37,4.39-7.65,1.83-1.86,4.03-3.78,5.86-5.88,2.42-2.77,5.74-3.7,9.03-4.87,2.15-.34,5.8-.31,8.15,0,1.36.28,1.72,1.3,1.79,3.11.01,2.08.17,4.23-.11,6.13l-.07.34Z"/>
    <path class="st7" d="M200.13,739.67c-1.17.78-2.88.65-4.39.89-2.68.43-5.49,1.53-7.69,2.8-5.14,1.87-9.02,5.85-12.21,10.18-2.44,2.94-3.7,8.37-5.14,11.03-1.55,2.9-.6,5.61-.84,9.24.02,5.85.01,13.2.06,16.63.16,2.54,1.4,3.61,2.92,6.17,1.9,3.84,3.57,8.13,7.53,10.35,2.18,1.14,3.87,2.48,6.5,3.04,4.75.12,12.71,1.25,17.18-2.26,2.77-1.55,5.37-3.7,6.52-6.52.65-1.26,1.11-2.66,2.12-3.71,2.58-1.91,3.18-5.94,4.47-8.47.8-1.3,1.23-2.43,1.13-4.08,0-5.67-.02-18.53-.02-23.06.08-3.73-2.03-6.66-4.33-9.67-3.62-3.42-6.66-7.64-10.72-9.85-1.72-1.34.52-2.08,2.52-1.9,2.72.37,4.79,2.78,6.67,4.69,1.92,2.01,4.3,3.93,5.36,6.2,1.7,2.44,2.38,6.07,3.58,8.95.76,1.86,1.7,2.17,1.9,4.22.08,4.55.05,13.05-.15,16.88-.16,1.28-.83,2.15-1.37,3.3-2.07,4.36-2.65,10.94-5.78,14.88-2.64,2.95-3.95,7.41-7.35,9.57-2.31,1.43-4.18,2.7-6.25,3.42-4.4.88-12.19.2-16.7.38-3.42-.26-5.06-1.92-7.81-3.33-3.55-2.13-5.69-6.17-7.25-9.86-2.47-3.44-3.21-8.38-5-11.94-.37-.93-.52-1.7-.55-2.85.21-4.72-.49-12.37.39-16.71,1.89-3.64,2.56-8.09,4.78-11.58,1.66-3.48,2.78-6.87,5.85-9.48,2.59-2.29,4.12-5.05,7.67-6.28,1.13-.35,2.32-.75,3.42-1.15,2.35-1.22,6.6-2.38,10.28-1.88,1.02-.03,3.91.63,2.88,1.63l-.17.14Z"/>
  </g>
</svg>